<mxfile host="Electron" modified="2024-01-11T09:44:14.079Z" agent="Mozilla/5.0 (Macintosh; Intel Mac OS X 10_15_7) AppleWebKit/537.36 (KHTML, like Gecko) draw.io/22.1.18 Chrome/120.0.6099.199 Electron/28.1.2 Safari/537.36" etag="QGdJi4EktFilWHSDnVbN" version="22.1.18" type="device">
  <diagram name="Page-1" id="VtINo7YzWPhkleoRjyjR">
    <mxGraphModel dx="2385" dy="1533" grid="1" gridSize="10" guides="1" tooltips="1" connect="1" arrows="1" fold="1" page="1" pageScale="1" pageWidth="827" pageHeight="1169" math="0" shadow="0">
      <root>
        <mxCell id="0" />
        <mxCell id="1" parent="0" />
        <mxCell id="Z7I3IYsszyrtjd-cQvIp-2" value="" style="shape=image;verticalLabelPosition=bottom;labelBackgroundColor=default;verticalAlign=top;aspect=fixed;imageAspect=0;image=data:image/png,iVBORw0KGgoAAAANSUhEUgAAAxwAAANMCAYAAADWiav/AAAAAXNSR0IArs4c6QAAAARnQU1BAACxjwv8YQUAAAAJcEhZcwAADsMAAA7DAcdvqGQAAJGZSURBVHhe7d0JnBTVuffxpzEuCO6yjAKKookoagCVAVHELRrXGUAYxCUu8EZN3BPDorKYRE3UuFxFvWp0BgSGRVHicpErYXEBFY0Yg44LzrC4EUGuEum3n9NVQ8/UqZlmpqu7qvv3/Xw6VV1d0/2nutvU0+ecOrGNGzfGf/SjH0lj1qxZI23btnXu2f3nP/8xy8aeL9P7KfJ5kc+OfHbk80c+L/LZkc+OfP7I50U+uyjna+EsAQAAACDjYps2bUqrhWPVqlXSvn17555dLis08nmRz458duTzRz4v8tmRz458/sjnRT67KOejhQMAAABAYCg4AAAAAASGggMAAABAYCg4AAAAAASGggMAAABAYCg4AAAAAASGggNAZMTjcWcNAABEBTONW5DPjnz+yOfV0H762IcffigfffSRfPrpp/L+++/LN998I2vXrpXPP/9cvvrqK3N/w4YNkvhvlHz//fe1zxeLxcxzbr/99rLjjjtKq1atZJdddpHdd99d9txzT2nTpo0UFRVJx44dpVOnTrLvvvtKhw4dzN+mSvffoXh/vchnRz478vkjnxf57KKcj4LDgnx25PNHPi93Py0q3njjDXn77bflH//4h7z77ruyYsUK89jW0mKjKa0cWpQceOCB0rVrVznkkEPk0EMPNTctUMJ+/MhXF/nsyOePfF7ksyOfXSZel5nGLchnRz5/5Nvi73//u8yfP18WLFggr7zyimmxqE8Lh/333186d+5sWiH23ntv0yrRrl072WOPPWS33XaTnXfeWVq3bi0tW7aU7bbbrvb1tODQDN999518++23piVk3bp18uWXX5rXWr16tVRXV8vKlSvl448/Ni0pNTU15m/rO+CAA6S4uFj69OkjxxxzjPzkJz9xHqmL99eLfHbksyOfP/J5kc8uyvkoOCzIZ0c+f4WcT1sw5syZI88//7y8+OKLsn79erPdtc8++0j37t3lsMMOM60L2srw4x//WFq0yN4Qsn//+9/y3nvvmRYWbWl58803ZenSpaZQSaUF0Iknnignn3yynHrqqbLDDjuY7Xz+vMhnRz478vkjnxf57KKcj0HjALbaBx98ILfeeqtpHdCT9F/+8pcyc+ZMU2xocXHllVfK1KlTTSuDFiTTp0+XG2+8UUpLS+Wggw7KarGhtLXkyCOPlAsvvFD+/Oc/y9y5c+Xrr7+WZcuWyf333y/nnnuuaWmpqqqSiRMnmpzauqLLJ554Qv7v//7PeSYAALC1KDgApEUHbj/88MNy0kknma5Hv/nNb2Tx4sWm+9PQoUPl8ccfN7+ULFmyRO644w4ZMGCA6SoVZt26dZPhw4eb7Nr9SguQ22+/XU444QT54YcfTKE0bNgw0yJzwQUXyAsvvOD8JQAASBcFB4AGvfPOO6bFQsdWXHzxxfLSSy/JrrvuatafffZZM3ZCWwG0lUDHYESZFiDXXHONKSx0PMhDDz0kp5xyiim2HnvsMVNs6T533nmnuYIWAABoHAUHAKt58+aZVgo9wb7rrrtMdykd11BRUWEuW/vggw+ak/F8pQXWRRddZIoq7Rr2xz/+0RwLLcCuuuoqU1xpK48+BgAA/FFwAKhDC43TTjtNjjvuOKmsrJSddtrJ/Oq/fPlyeeaZZ2TIkCHOnoVDu4Zdf/31psuVDpDXsR3awqHjWHS+Dy1A9MpYAADAi4IDgKHzY2i3KC00tLDYa6+95A9/+IMZl6HjGvwuGVtofvazn8m0adNM8XHJJZeYbdrFSi/zO3bsWDP2AwAAbEHBARQ4nddi5MiR5rK1Tz75pOlKpN2HPvvsM9NlSGfzhpd2r9IrWv3zn/8041n0coDjxo2TLl26SHl5ubMXAACIVVdXx3USrtQZfG3r2n9bLxPZkM2bN5tlY5e8TH1ul7vuPqb0+XS7eyNfEvnsyLf1+XTuDP1VXi9zq6677joZPXq06UaFrfPaa6+ZYzl79mxzX7uljRkzxnS5SpXN9zcV3w/yKfLZkY98inx2mcjHxH8W5LMjn78o5tMrT+lgcKWDv2+55RY5/PDDzX00nbZu/O53v5NPPvnE/Ef8L3/5i5n/w8Xnz458/sjnRT478tmRz1+28jVcqgDIO2+99ZYcddRRptjYbrvt5J577jFXYqLYyAydk0THw+j8HvrL0S9+8QsZMWKE8ygAAIWHggMoIJMnTzbFxquvvir9+vWTN998Uy677DLnUWRKq1atzAzmeglhnbPkgQcekD59+siKFSucPQAAKBwUHECBuO2228wlbb/77jvTnUon8DvooIOcRxEEPd6vvfaaHHPMMbJw4ULp27evvPzyy86jAAAUBgoOoAD8/ve/N/NIqHvvvVfuuOMOs47g6VWr/vd//1cuuOAC01f2xBNPlKefftp5FACA/EfBAeQ5vfKUDlzWK0XoRH6//OUvnUeQTY888ogp+vRqHyUlJTJjxgznEQAA8hsFB5DH9LKsOmnftttua2bI1hNd5I7Ob3LjjTeadX0v9LLEAADkOwoOIE9p1ymdiE7NmjVLTj75ZLOO3LrpppvMZXPVoEGD5O233zbrAADkq9jGjRvTmodjzZo10rZtW+eeXS6vI0w+L/LZFUK+F154QU499VSz/sQTT5hLtSJc9FK5evUqneFdB5TrJYpTRfnzVx/5vMhnRz478vkjn1cY89HCAeSZL7/8snbeh/Hjx1NshJReNveEE04w86IwrgYAkM+YadyCfHbk8xemfMOGDTOtGqWlpTJt2jRnK8Loo48+ku7du8tXX30ljz76qJx//vnOI9H9/NmQz4t8duSzI58/8nmFMR8tHEAemTp1qik2dt99d7n77rudrQirfffd18z4rvQKVuvWrTPrAADkEwoOII+4V0DSeTeKiorMOsJNW6S0NUr70d58883OVgAA8gcFB5An7rnnHlm+fLn06dNHLr30UmcrokCvXKV0QsYVK1aYdQAA8gUFB5An3K45OtEfouWQQw6R4cOHm3UtHAEAyCcUHEAe0LEb+st4z5495cwzz3S2Ikouv/xys5w4caJs3LjRrAMAkA8oOIA8MGnSJLNMvcoRokVbOXRyRi02Jk+e7GwFACD6KDiAiNuwYYPMmDHDrJ9zzjlmiWgaOHCgWc6cOdMsAQDIB8w0bkE+O/L5y2W+OXPmSElJifTr109eeuklsw3RpNdD16uLtWzZ0kzgqML++SNfXeSzI58/8nmRzy7K+WjhACJu8eLFZtm3b1+zjJyVFVIai0nMvQ2qkFXOQ8nHJsgi527amvp3OaaTLx166KGmW9Vrr73mbAUAINqYadyCfHbk85fLfGeccYZp5dBuOJEbMK6FQceh0n1RXEb2Sm5aNC4mvd8ul5opZdLePF4l18ZHSnHy4fQ09e9C4IILLpDHHntM7r//frnoootC//kjX13ksyOfP/J5kc8uyvlo4QAi7oMPPjDLAw880CwjZWWVTJfx0t8pNlTxheVSMrVS5q5cJBMSxch0GSW9a1srEttSW0PGOW0YiydIbFBpsqVk0M1yg+fvosN9H933FQCAqKPgACJOf51Qe+21l1lGSq/+iXJDC4NSqVjpbOtQJpXxSinrUCwjP00UH4k9FpqWilVSMai3LK2okXg8LnF9bMztW/5uqkjpp4ntU26U39f5u2hxZ4hfvXq1WQIAEHUUHEDErV+/3ix32mkns4yWRFGRKB5qKkSGdnRbLlKKjzraS9mUuFQOcZp+O3SW7sk1R3fp3MFZjTD3fdSrjwEAkA8oOADkXPshlclWC70t6p4oPny6QmnXqdouVb1llLPZGNhZOjurAAAgPCg4gIhr3bq1WX7zzTdmGSWrJpVK6aTaa1IlmW5WS6XK08qxSCYUj5Lxi5zCJL4wsV/+cd/HVq1amSUAAFFHwQFEnHt1ierqarOMkvZ9S0XKLqvThWrVpNtlVBrdo5L75Z+amhqzbNeunVkCABB1FBxAxO2///5m+f7775tlpOgA8U9LpbJ2/EZMisq6bxnsbcZpuFebKpaLKkpkVHFyv8vkWikfON3SEpJQ5++ixX0f3fcVAICoY6ZxC/LZkc9fLvPdeOONcuutt8ro0aNl7NixZhui67DDDpNly5bJyy+/LEcccUToP3/kq4t8duTzRz4v8tlFOR8tHEDE9eqVnMRi/vz5Zono0ksca7HRsmVLU2wAAJAPmGncgnx25POXy3zfffdd7cBx/aWiTZs2Zh3R8/DDD8vFF19sZo+vrKw028L++SNfXeSzI58/8nmRzy7K+WjhACJOr2Z09tlnm/Unn3zSLBFNU6dONcuzzjrLLAEAyAcUHEAeGDJkiFk+9thjZonoeeedd+S5554z3akGDx7sbAUAIPooOIA8MHDgQOnSpYu8/vrrMmvWLGcrouSee+4xy0svvdQUHQAA5AsKDiBP/PrXvzbL2267zSwRHdq68cADD5j1yy+/3CwBAMgXFBxAntAT1YMOOkgWLFggEydOdLYiCm666SazvOqqq0xLFQAA+YSCA8gjN998s1necMMNtTNWI9wef/xxc0UqvQ66zqkCAEC+oeAA8oiO5Tj33HPlyy+/lCuuuMLZirD66KOParvC6eSNu+yyi1kHACCfUHAAeeauu+6STp06mV/NJ0yY4GxFGF1yySXy1VdfyYUXXijnn3++sxUAgPwSq66ujsdiMdFbPB5PbrSsr1+/vnZyMT+bN282yxYtGq5jUp/b5a67jyl9Pt3u3siXRD478m35u3nz5tVeWvWJJ56QoUOHmnWEx4gRI8xA8UMOOUTmzJkj2267bdrvb/11vh/kIx/5FPnsyJf7fMw0bkE+O/L5C2O+e++9t/aKR88++6yccsopZh25N3LkSLnllltMF6r58+dLt27dnEe2iPrnLxX5vMhnRz478vkjn1cY8zVcqgCIrMsuu0xGjx5t1s8880wzqRxyT69IpcWGmjJlirXYAAAgn1BwAHls7Nixcu2118qmTZtMC8f06dOdR5ALv/nNb2qvJKbvxUknnWTWAQDIZxQcQJ7TiQB/9atfmb6VpaWlct999zmPIJt0YLheiUr7wGqxcfbZZzuPAACQ3yg4gAKg83Loya7SrlY6wRyyY8WKFXLsscfKo48+avrJvvDCC3L66ac7jwIAkP8oOIACcd1118mkSZNk++23lzvvvFOOO+44Wb58ufMogqDH+4gjjpCXX35ZevfubQaIH3PMMc6jAAAUBgoOoIDopXJfeeUVOfLII82lcw8//HBzNStk1oYNG8xlb8vKyuTrr7+W4cOHy4IFC6RLly7OHgAAFA4KDqDAHHbYYabo0Bmuv//+e3Pp3FNPPVXefPNNZw80R3l5uXTt2tXMsaHXNv/v//5vuf/++51HAQAoPLGNGzemNQ/HmjVrpG3bts49u1xeR5h8XuSzI98Ws2fPNldOev/998197Xall9LdaaedzH2k77XXXjNXBdNjqnSA/h//+EfZZ599zH0Xnz878vkjnxf57MhnRz5/2cpHCwdQwE477TR555135Le//a25r1e06ty5c+0AczROi7VLLrnEdFPTYkMLjMcee0wmT57sKTYAAChEzDRuQT478vnLh3zLli0zE9I9+eST5v5ee+1lLqd7xRVXyI477mi2YYu3335b7r77bnnwwQfNfX0f9GpgN954o2yzzTZmmw2fPzvy+SOfF/nsyGdHPn/ZykcLBwBDxx088cQT8tJLL8nPf/5zqa6uNi0f+h8inTzwvffec/YsbH/7299kwIABcuihh9YWG1deeaV88MEHMmbMmAaLDQAAChEFB4A6+vXrZ7oGaeGh4xC++eYb+dOf/iQHHXSQKUT0Uq+F5rPPPjPdzLTI0BnbKysrpVWrVnL99dfLp59+KnfccYdpEQIAAF4UHACstPCYNm2a6TqkV7TSKy49++yz5lKvu+22mxm3MGfOHGfv/PPFF1/Iww8/bK7g1aFDBzO4Xo/FIYccYgqM1atXm0Hh+hgAAPBHwQGgQXqCrRMF6gn4Qw89ZCYM1LkldF1PxnfffXc599xzTXcsPQmPMi0otDXnxBNPlD333FMuvvhiU1Rtt912cv7558vzzz9v9tEuVNrCAQAAGkfBASAtetJ90UUXmZNuHc+hv+736tVLvvrqKzP3xLBhw8x4jx49eshVV11lWke0K1KYafGg82Vodr2ilHaZ0vEqL774ohmLUVJSIo8//rj885//lEcffdQUIgAAYOtQcADYavvvv78Zv7Bo0SKpqqqS++67T8466yzT7Wrp0qWmRWTgwIGmu9G+++5rTtxvvvlmM/Zh+fLlsnnzZueZsuPf//63vPrqq/LII4/I1VdfLf3795ddd93VFBg6I7i2znzyySfmksCXXnqpybl+/Xqz1NabHXbYwXkmAACwtbgsrgX57Mjnj3xb/P3vf5f58+fLggULzIzmn3/+ufPIFrFYzBQteoLfqVMn2XvvvaWoqEjatWsne+yxhxkjsvPOO5sCpmXLlqZ1xX29eDxuMnz33Xfy7bffmkHt69atky+//NK8lnbr0itsrVy5Uj7++GP58MMPpaamxvxtfQcccIAUFxdLnz595JhjjpGf/OQnziN18f56kc+OfHbk80c+L/LZRTkfM41bkM+OfP7I5+Xu99FHH8kbb7xhui/94x//kHfffVdWrFhhHttaWqhowbG1dLzFgQceaC79q2NStGVDbzpOI+zHj3x1kc+OfP7I50U+O/LZZeJ1KTgsyGdHPn/k82poP31MWx60GNHLyups3dpSsXbtWtNKoeNC9P6GDRsk8d8o+f7772ufT4sOfc7tt9/eTEioxcQuu+xiBq9rAdGmTRvTWtKxY0fTeqJdumxXkkr336F4f73IZ0c+O/L5I58X+eyinI8uVRbksyOfP/J5BZFv6NChZjzIOeec42z1ymU+Febjp8jnRT4v8tmRz458/siXxKBxAAAAAIGh4AAQGTp+Q7tUAQCA6KDgAAAAABAYCg4AAAAAgaHgAAAAABAYCg4AAAAAgaHgAAAAABAYJv6zIJ8d+fyRzyuIfOeee66UlpbKwIEDna1eucynwnz8FPm8yOdFPjvy2ZHPH/mSaOEAAAAAEBhmGrcgnx35/JHPK4h8ZWVlMmDAABk0aJCz1SuX+VSYj58inxf5vMhnRz478vkjXxItHAAAAAACQ8EBAAAAIDAUHAAAAAACQ8EBAAAAIDAUHAAAAAACQ8EBIDLi8bjEYjHnHgAAiAIKDgAAAACBoeAAAAAAEJhYdXV1XLso6E27K5iNlvX169dL69atzTY/mzdvNssWLRquY1Kf2+Wuu48pfT7d7t7Il0Q+O/Llf77hw4fLGWecIaeffrqz1SuX+RTvL/mUPrfLXScf+Wzr5CNfIeRjpnEL8tmRzx/5vILIN2TIEDPL+MCBA52tXrnMp8J8/BT5vMjnRT478tmRzx/5khouVQAAAACgGSg4AAAAAASGggMAAABAYCg4AAAAAASGggMAAABAYCg4AAAAAASGggMAAABAYGIbN25Max6ONWvWSNu2bZ17drm8jjD5vMhnRz67KOQbOnSomYNjwIABzlavXOZTYT5+inxe5PMinx357Mjnj3xJtHAAAAAACAwzjVuQz458/sjnFUQ+Zhq3I58X+ezIZ0c+f+TzIp9dQ/vRwgEgMuLxuMRiMeceAACIAgoOAAAAAIGh4AAAAAAQGAoOAAAAAIGh4AAAAAAQGAoOAAAAAIGh4AAAAAAQGGYatyCfHfn8kc8riHxlZWVyzjnnSGlpqbPVK5f5VJiPnyKfF/m8yGdHPjvy+SNfEi0cAAAAAALDTOMW5LMjnz/yeWUq3wcffCD777+/eb7Bgweb24ABA5xHvbKdz5Xp1yWfHfnsyOePfF7ksyOfXSZelxYOAKH1+uuvy1FHHSUjRoyQqqoqZ6vIs88+K127dpXjjz/e2QIAAMKKggNAaPXs2VO6d+8ujz76qBx88MGyYMEC+e1vfyvnnXeefPjhh3LxxRc7ewIAgLCi4AAQarfccovEYjHZtGmTfPPNN/LRRx/JF198IR07dpQhQ4Y4ewEAgLCi4AAQatrK4Xad2rBhg/zwww+y4447yrhx48w2AAAQbhQcAELvpptukh122MG5J1JUVGQGjwMAgPCj4AAQetrK0b9/f7OurRvjx4836wAAIPwoOABEwpgxY2TbbbeldQMAgIhhpnEL8tmRz1++55s5c6YsW7ZM3n77bbPUK0QhO9q1ayeHHnqoHHjggXL22WfLscce6zyyBd8PL/LZkc+OfP7I50U+u4b2o4UDgK9//vOfpjVh4MCBZpC2Fh4UG9m1evVqeeGFF+Tee++VE044Qe644w7nEQAAooGZxi3IZ0c+f/mYT09wr7rqKnM52g4dOsgVV1whBxxwgPm1XWf+RnZ89dVXpsh74okn5M4775SddtpJPvvsM7N08f3wIp8d+ezI5498XuSza2g/WjgAeMybN08uv/xyU2xo68Ybb7wh119/venSQ7GRXbvttpv06NHDtGxoa5PORTJ79mznUQAAwo+CA4CH222nrKxMpkyZInvuuae5j9xq06aNWW7cuNEsAQCIAgoOAHVo152nnnrK/LJeXl7ubEUYLFy40Cz79OljlgAARAEFB4A67r77brP8wx/+YJYIh+XLl8uSJUvkoIMOkh//+MfOVgAAwo+CA0CtF198UV599VXp27evXHrppc5WhEFlZaVZnnrqqWYJAEBUUHAAqDVjxgyzLCkpMUuEx/Tp082S9wYAEDUUHACML7/80syz0apVK05qQ+aZZ54xVwrr16+f9O7d29kKAEA0UHAAMLTY0BlH9dK3nTp1crYiDGjdAABEWay6ujoei8VEb/F4PLnRsr5+/Xpp3bq12eZn8+bNZtmiRcN1TOpzu9x19zGlz6fb3Rv5kshnR77m5Rs6dKjMnTvXnNxq0YFwSPw3Wg4++GD54Ycf5OWXX5aioqImvb98P8inyGdHPvIp8tllIh8zjVuQz458/qKeb+nSpWZyua5du8o//vEPZyvC4J577jGzvJ9//vny6KOPOlvr4vvhRT478tmRzx/5vMhn19B+DZcqAAoCg8XDi+5UAICoo+AAUHtSS1eqcFmwYIG89NJL0q1bNznjjDOcrQAARAsFB1DgtHXj3XfflVNOOUW6d+/ubEUY0LoBAMgHFBxAgeOkNpy+/fbb2sn+aHkCAEQZBQdQwD755BPTwtG2bVsKjpDRYuPjjz+W0047TQ477DBnKwAA0UPBARQwbd3YsGGDKTZ23313ZyvCgJYnAEC+oOAAChgnteH0zjvvmIkYdc4NulMBAKIutnHjxrTm4dAZiLXbRUNyeR1h8nmRz458SX//+9/luOOOkyOPPFJeeeUVZyvCYOzYsXLjjTfKiBEj5O6773a2+uP74UU+O/LZkc8f+bzIZ9fQfrRwAAXKnXuDX9DDx215OvPMM80SAIAoY6ZxC/LZkc9f1PLpuA2dVfyzzz4zl8Q98MADnUeQa08//bSZc+Ooo44yrVD5+PmzIZ8/8nmRz458duTzl618tHAABUhbN/QKVTp2g2IjXNzWDVqeAAD5goIDKECc1IbTypUrzeVwt9tuO94bAEDeoOAACox2odIWjv3224+rU4WMFoLffPONeV/0/QEAIB9QcAAFJvVSuNtvv71ZRzgwszgAIB9RcAAFxr06Fa0b4TJ//nx5+eWX5YADDuC9AQDkFQoOoIDMmTNHli5daubfKC4udrYiDNzWDS020rmyCAAAUUHBARSQ1O5UCI/169czkB8AkLeYadyCfHbk8xeFfKpbt27yww8/mIHje+21l9mG3HvsscfkggsukOOPP17+9re/mW359vkjX13ksyOfHfn8kc8rjPlo4QAKxMyZM+XLL780v6BTbIQLrRsAgHzGTOMW5LMjn78o5DvvvPPkhRdekKeeekpOP/105xHk2rJly+Swww6T3Xff3bQ8tWvXzmzPt88f+eoinx357Mjnj3xeYcxHCwdQAN544w1TbBx66KEUGyGT2rrhFhsAAOQTCg6gAOjVqRRddsIn9epUAADkIwoOIM/pIPFnnnnGrHNSGy6zZs2Sd955R37605/Kqaee6mwFACC/UHAAeU677Hz44YemK5V2qdoai8bFJDZukXPPsbJCSmMTpN7WraLPWzpplXMvxeIJEhtUIZZHMsv3dVZJxSCfbAFgZnEAQCGg4ADyXKRmFu81UuJTyqTh4Wv54ZNPPmFeFABAQaDgAPKYtmzoSa1eBjewX9G1tSAWS95SWg1MK8a4CVJa77FVk0ql9xiR6WVF3paElJYHv793WyEmJB6rfd36rTC1FskEd58G9jMtOfr4oIelytmWlHwt9+8nLHY2m5ylyWzWlpLGaevGhg0b5KyzzpKDDz7Y2QoAQP6h4ADymBYb3333nfkFfZdddnG2ZpB2rypeKuWfxiUer5FyGSpFKSf10xOFxbXxxGOflkvJ1KHycOKEvf2QSlk4VqSkokYqhzTclmH7e9eotztLjT62aLzImNulYqXzQC0tFnrL0sTrxN3nsOyXLIDGy0Ld58+dZelU54GEReOKZGi3hcm/T7zOqOLSLX+f2K9U/91NbJGhdQMAUCiYadyCfHbk8xfWfH379pXFixfL3Llz5bjjjnO2pk9/+dfWCC89QR8pnRMn60UzSqXGPenWX/4TJ+16v0r/VhIn66OLEw/oyX+RVF0dl5G9ks97exdLwZHW3yfXK892/15bMW6Xzp9WSlkH8yw+UvZbWfd1UrNsyVaV2L93YkMyc50Mkvj7RCw9Bppua82bN8+8Hx07djTzcLRu3dp5ZIt8+Py5yOdFPjvy2ZHPH/m8wpiPFg4gT+lJrRYbxcXFTSo2ao11fuF3b9pS4DxkTB0qRU6Xo1jxqMT9qtpuSSVdOjtrTdPQ33fvnEa7Qmp3r0TxkEhXzyqpettZ9TGq2P37Ihk6VWRpldOBamBnaeq/zm3d0O5UtmIDAIB80kKrkHRuLVq0sG4Py418zbuRr3m3MObTS66qwLvs1C9Imvirf+YtkgmJAmj8IjfXQhnvPLJFe+nczVm1KnG6i225NdYNrDHr1q2rvTrVgAEDrO/d1t74fjTvRr7m3cjXvBv5mncjX/Nu2cpHCweQh/SkVn9F33777QMtONr3La0zLsIMvm7iIOqgrZp0u6WFQ6T4xPEyvezh5GV+V1bI7bVdyIql/9jpMvQRZ0yKuRxwysDxJtL3pbq6Wo4++mg55phjnK0AAOQvCg4gD+mlcPWkVouN/fbbz9kagA5lUrmouwztmOx2ZAZfpzGIunOXEvtVqjKqWC6qKKntEnWZXCvlA6dLVf3B5b1GysKxo6S3dpvqWCWlib9xFY+ukfK3eye7VHUcKlJR44znaDpmFgcAFJrYpk2b0ho0vmrVKmnfvuHTiFwOeiGfF/nsCiHfGWecIU8//bRMmTJFBg4c6GxFrr355ptmVvEdd9xR3n33Xdlnn32cR7yi/Pmrj3xe5LMjnx35/JHPK4z5aOEA8oxe9UiLjQMPPJBf0UPGbd3QweINFRsAAOQTCg4gz6TOLL7NNtuYdYRD6tWpAAAoFBQcQJ5xT2oDm1kcTaLvi3aj+slPfsJ7AwAoKBQcQB7RrlTaperEE0+UI4880tmKMKAQBAAUKgoOII+4J7WM3QiXqqoqulMBAApWrLq6Op6cRTdmJrUyGy3r69evb3RG3M2bN5ulTiLSkNTndrnr7mNKn0+3uzfyJZHPrtDz1dTUyLHHHmuuDrF8+XJp27atsydy7U9/+pNce+21Zsb38vJys21r39/6n7nUdb4f5CMf+RT57MiX+3xcFteCfHbk8xeGfPfcc49cccUVcvHFF8uDDz5otiEc+vTpIwsXLpSJEyfKhRdeaLbl2+evIeTzIp8d+ezI5498XmHM13CpAiAy6E4VTnPnzjXFRps2bXhvAAAFiYIDyAOLFi2Sl156Sbp37y6nnHKKsxVhkFoI7rHHHmYdAIBCQsEB5AGugBROX331Ve1kf7RuAAAKFQUHEHHfffcd3alCSosN7R97xBFHyEknneRsBQCgsFBwABGnxcaHH35oWje6du3qbEUY0PIEAAAFBxB5M2bMMEtaN8JlyZIlMmfOHHMZQd4bAEAho+AAIuxf//qX+RW9U6dO/IoeMqnd3H784x+bdQAAClFs48aNac3DsWbNmkYnEsvldYTJ50U+u3zKd/vtt8vo0aPlyiuvlDvuuMN5BLmmkyQdfPDB8t5778lf//pXGTJkiPNIfn3+FPnqIp8d+fyRz4t8dlHORwsHEGGzZs0yS7rshIu2bmixse+++9LyBAAoeMw0bkE+O/L5y0W+v/3tb2bOjb59+8rLL7/sbEUYlJWVyaRJk+Saa64xrVCp8uXzRz478tmRzx/5vMhnF+V8tHAAEcVg8XD64IMPmHsDAIAUFBxABH355Zcyc+ZMadWqFSe1IaPdqb7//nvp16+f9O7d29kKAEDhouAAIkhPanWgl44P0CtUITxo3QAAoC4KDiCCUi+5ivB48cUX5ZVXXpGdd96Z9wYAAAcFBxAxS5cuNRPK6aziXAEpXNzWDX1f9t57b7MOAECho+AAIobB4uH0xRdf0PIEAIAFBQcQMe5JLa0b4aKtGzquplu3bnLGGWc4WwEAADONW5DPjnz+spVPr0w1cOBAM//Gs88+62xFGPzsZz+T5557zsz8PmbMGGerV5Q/f6nIZ0c+O/L5I58X+eyinI8WDiBCtOBQdNkJl9dee80UG+qss84ySwAAkMRM4xbksyOfv2zk++STT8xAcZ17Y/ny5bL77rs7jyDXbrjhBvnDH/4gP//5z2X27NnOVruofv7qI58d+ezI5498XuSzi3I+WjiAiNCxGxs2bDCtGxQb4aH/gU29OhUAAKiLggOICK6AFE76vvzrX/+SoqIiOfPMM52tAADARcEBRMB7770n8+fPlyOPPFJOPPFEZyvC4NFHHzVLHbux6667mnUAALAFBQcQAa+//rpZ9u/f3ywRDuXl5WYSxnbt2slvfvMbZysAAEhFwQFEwLx588yyuLjYLBEOd999t1n+13/9FzOLAwDgg4IDiIAffvjBLNeuXWuWyC1t1TjkkEPklVdekZNOOonB4gAANICCA4iAo446yiyvv/56mThxoixbtkw2btxotiF43377rbzxxhsyefJkufnmm+XUU0+Vf/zjH3LQQQfVzr8BAADsmGncgnx25PMXdL6qqir53e9+J9OmTXO2IJd22GEHueqqq2Ts2LHOlvz+/NmQz458duTzRz4v8tlFOR8tHEAEdO7cWSZNmiQPP/ywnHfeedKzZ08zASCyo3Xr1nLsscfKlVdeKQ888IC5YlhqsQEAAPwx07gF+ezI5498XvX3e/rpp+XBBx+Up556ytxPxfHzIp8d+ezI5498XuSzI59dJl6XFg4AAAAAgaHgAAAAABAYCg4AAAAAgaHgAJAV8XhcYrGYcw8AABQKCg4AAAAAgaHgAAAAABAYCg4AAAAAgaHgAAAAABCYWHV1dVwHcupNB3WajZb19evXm9l2G7J582azbNGi4Tom9bld7rr7mNLn0+3ujXxJ5LMjX7jzzZkzRyZPniyPPfZYKPPVz5S6Tj7ykY98inx25COfaigfM41bkM+OfP7I51V/v1mzZskjjzwiM2fONPdTcfy8yGdHPjvy+SOfF/nsyGeXiddtuFQBAAAAgGag4AAAAAAQGAoOAAAAAIGh4AAAAAAQGAoOAFmhV69IvXIFAAAoDBQcAAAAAAJDwQEAAAAgMLGNGzemNQ/HmjVrpG3bts49u1xeR5h8XuSzI59d0Pl0Ho7HH39cpk2bZu6n4vh5kc+OfHbk80c+L/LZkc8uE69LCwcAAACAwDDTuAX57Mjnj3xe9febMWOGaeGYPn26uZ+K4+dFPjvy2ZHPH/m8yGdHPrtMvC4tHAAAAAACQ8EBAAAAIDAUHAAAAAACQ8EBAAAAIDAUHAAAAAACQ8EBICvi8bjEYjHnHgAAKBQUHAAAAAACw0zjFuSzI58/8nnV30/n4Zg0aZJMmTLF3E/F8fMinx357Mjnj3xe5LMjn10mXpcWDgAAAACBYaZxC/LZkc8f+bzq76czjJeXl0tlZaW5n4rj50U+O/LZkc8f+bzIZ0c+u0y8Li0cALKCQeMAABQmCg4AAAAAgaHgAAAAABAYCg4AAAAAgaHgAAAAABAYCg4AWcOgcQAACg8FB4Cs0KtUAQCAwsNM4xbksyOfP/J51d9P59+YOnWqTJ482dxPxfHzIp8d+ezI5498XuSzI59dJl6XFg4AAAAAgWGmcQvy2ZHPH/m86u83bdo0efLJJ00rR30cPy/y2ZHPjnz+yOdFPjvy2WXidWnhAAAAABAYCg4AWaGDxrlKFQAAhYeCAwAAAEBgKDgAAAAABIaCAwAAAEBgKDgAAAAABIaCA0BWMGgcAIDCRMEBAAAAIDCx6urquP7qqDf9BdJstKyvX79eWrdubbb52bx5s1m2aNFwHZP63C533X1M6fPpdvdGviTy2ZEv3PlmzZolzzzzjEycODGU+epnSl0nH/nIRz5FPjvykU81lI+Zxi3IZ0c+f+Tzqr/flClTpLKy0sw2rj744APZf//9zTrHz4t8duSzI58/8nmRz458dpl43YZLFQBohpNOOkkOPvhgmTNnjrNFZMWKFTJixAjp1auXvP76685WAACQryg4AATmF7/4hXz44YcybNgw+d3vfifz58+Xrl27ymOPPSY//elPpWfPns6eAAAgX1FwAAjM4MGDZe+995YvvvhCPvroI1m3bp1s2rTJPHbLLbeYJQAAyG8UHAACdfPNN8uOO+4oP/zwg3z77bdm2wknnEDrBgAABYKCA0Cghg4dWmdA2g477CA33XSTcw8AAOQ7Cg4AgRs7dqy0bNnSXB5PWzd69OjhPAIAAPIdBQeAwGkrx0477STbbrut6WIFILPWrFljbgAQRrGNGzemNQ+H/oesbdu2zj27XF5HmHxe5LMjn12Q+XT+DR1Avt9++8k///lPsz0Vx8+LfHbk81q9erWcccYZpgXxqaeeanBfjp8d+fyRz4t8dg3tRwsHgEC5xYbSS+Red911Zh1A82mxceaZZ8rSpUtlyZIlZl1PIAAgTJhp3IJ8duTzRz4v3S+12Lj66qvlz3/+c+36n/70J7OuOH5e5LMj3xZabJx22mlmAs0jjjjCbHvttdfM+uzZs62/WnL87Mjnj3xe5LNraD9aOAAEon6xoQXGtGnTzH0tPK655hqzDmDr1S82tMDQm66/lig69DFaOgCEBQUHgIzTwqJ+saFKS0spOoBmshUb2pqhN4oOAGFEwQEgo7SgGDhwoFmv33VKUXQATedXbLgoOgCEEQUHgIxprNhw1S86mAgQaFxjxYaLogNA2FBwAMiIdIsNV2rR8cADD9DSATQg3WLDRdEBIEwoOAA029YWGy66VwGNW7t27VYVGy6KDgBhQcEBoFmaWmy4KDoAf9qyMWzYsK0uNlz1iw7m6QCQC8w0bkE+O/L5K9R8tkvfNpU+14ABA8z6lVdeKbfddptZd+Xj8WsI+ewKKZ8WG1og6IR+TSk2Uum/UVs4tOjo0aNHxmYkV7y/XuSzI59dIeSjhQNAk2Sy2FCpLR133nknM5KjoGWy2FD6t25LBzOSA8g6nWk8HTU1Nc6aP32udJ4v0/sp8nmlu58in1e6+6lCyzd58uR44j8f5pYoNpxHMiNRdFife2vyZXI/xefPK939FPm8Gtpv1apV8Z49e5rvQKJAiCeKD+eR5tPn0uds7LnT/Xco3l+vdPdT5PNKdz9FPq9091PZykcLB4CtkumWjfoY04FCpi0bTRkgnq7Ulg4GkgPIFgoOAGnTQiDIYsNF0YFCFHSx4aLoAJBtFBwA0qIFQHOuRrW16hcdjOlAPstWseGi6ACQTRQcABqV7WLDxUByFIJsFxsuW9GhWQAg0yg4ADQoV8WGq37RQfcq5JNcFRsuig4A2UDBAcBXrosNF2M6kI9yXWy4UosOzULRASDTKDgAWIWl2HBRdCCf6Am9zoWR62LDVb/o0GwUHQAyhZnGLchnRz5/+ZYv6EvfNke2ZyRXfP68yGeXzn56In/GGWfI0qVLQ1FspNJjoS0c2r2qe/fuZkbydu3aOY/a8f56kc+OfHaFkI8WDgB1hLnYUAwkR5S5LRthLDaUZnFbOjQjLR0AMiJsMxGmSnc/RT6vdPdT5PNKdz+VL/mCnEE80xJFhzVrLo9fJl833f0U+bzS3U9lK1+QM4hnmmbTjJpVM2t2P7y/Xunup8jnle5+inxe6e6nspWPFg4ARthbNupjTAeiRFsJwjBAPF2pLR0MJAfQXBQcAMyJe5SKDRdFB6IgasWGi6IDQKZQcAAFTk/Yw3Q1qq1Vv+hgTAfCJKrFhouiA0AmUHAABSzqxYaLgeQIo6gXGy6KDgDNRcEBFKh8KTZc9YsOulchl/Kl2HBRdABoDgoOoADlW7HhYkwHwiDfig0XRQeApqLgAApMvhYbLooO5JKegIdpBvFMsxUda9eudR4FADsKDqCA5Hux4aLoQC64xcaSJUvysthw1S86hg0bRksHgAbFqqur47FYTPQWj+scP4mNlvX169dL69atzTY/mzdvNssWLRquY1Kf2+Wuu48pfT7d7t7Il0Q+O/I1nG/evHlyySWXmO35XGyk0rlFBgwYYNZHjBghN954o1lXfP7syGfXWD79lV9PvN966628LjZSrVmzxrRwvPbaa3LYYYfJ448/Lm3atHEerYvPH/kU+ewKIR8zjVtkej9FPq9091Pk80p3P/Xggw/qfwXMLVFsOFsLw7Rmzkiu+Px5pbufyvd8UZpBPNP036r/Zv23NzQjebrvR6b3U3w/vNLdT5HPK939FPmSGi5VAESedi0qtJaNVHSvQpC0K1E+DhBPl21MB92rANRHwQHksUIZs9EYig4EodCLDRdFB4DGUHAAeYpio676RQeTA6I5KDbqougA0BAKDiAPUWzYpRYdzEiOpqLYsKPoAOCHggPIMxQbDatfdNC9CluDYqNhFB0AbCg4gDxCsZEexnSgKSg20kPRAaA+Cg4gT1BsbB2KDmwNPWHO5xnEM61+0aHHjqIDKFyxjRs3xn/0ox85d/3pBD+N/cf1P//5j1k29nyZ3k+Rz4t8dvmYTye4Gzx4sLlPsbF1UicHvPLKK+W2224z66n4/HkVUj49UT7jjDNk6dKlFBtbSY+ttnDo5IDdu3eXp556Stq1a+c86sXnz458/sjnFcZ8tHAAEUex0TwMJEdD3JYNio2m0WPltnToMaSlAyhQYZuJMFW6+ynyeaW7nyKfV7r7qVzlmzx5snUWbWy9RNHheyz5/Hmlu5+Kar5CnkE80/TY6THUY5nNGckV3w+vdPdT5PNKdz9FviRaOICIomUjsxjTgVT6KzwDxDMntaWDgeRA4aHgACJIT4wpNjKPogOKYiMYFB1A4aLgACJGT4i5GlVwKDoKG8VGsCg6gMJEwQFECMVGdtQvOm666SaznhuLZEIsJrFxi5z7SasmlXq2ea2SikExmbDYuYsGUWxkR26KDr5HQC5RcAARQbGRXalFxwMPPJD7lo4xt0vFSmc9be2lbEpcRvZy7sIXxUZ25aylg+8RkBMUHEAEUGzkRni6V5XI+LEiQ6+ukFXOFo/FEySmv+DqbZC7H7/MpmPt2rUUGzmQ/aKD7xGQKxQcQMhRbORWWIqOzhfeK+UyVB62nfTUTJfS4qVS/mlc4vEas19Ro91EoPQEd9iwYRQbOVK/6Ah6no4Gv0crJ/E9AgLCTOMW5LMjn7+g8nHp2/BobEby4D5/r8vvt/2z7Fs1RYZ89nvZ9miR+ZtukH0nD5KOH1wtm0b2kncmnik/fWmwfDppiLTXP3olsd+d+ybuHycvDekoH125Sa7rEVS+hvdTYf3+6omtnuAuWbKEYiPH9DOiLRyZnpFcJT9/Hzb4Pdr4m56yespg2ffp0qx+j1Sh/v9bQ8hnF+V8tHAAIUWxES6pLR05m5H8qBtk/k1j5M+TLR1Cpp0nHbfdVrbV29FjEvc/ko+ch+BFsREueuzdlo7AZyTnewRkX9hmIkyV7n6KfF7p7qfI55XufirT+ZhBPLwSRYf1vdma93fr9lsYHy8l8fJPk9vjn5bHSxL3x48ticvYhWbTW/edWrteV028fKDExy8KMl/jwvb9ZQbx8NL3Qt8TfW8yMSO5Sn7+Gv4e6XN9+vjZWf8eKf7/1yvd/RT5vNLdT2UrHy0cQMjQshFuOR/T0aFM7q0QGTVmurNBpG2vn0tJytV3Fo1LHfCKVPqrOQPEwyu1pSPQgeSW71H7o8/mewQEhIIDCBE9kaXYCL9cFx3th9wr5cnrCCQVlUjlou4ytGPy6jq9x4yXhVPKkv3QUYtiIxqyVXR4vkcdhvA9AgJCwQGEhJ7AcjWq6KhfdAQ3pqNYRsYrpayDc9dIzgsQH13s3E/oNVLicb26jt5GJv5KMX+Ai2IjWjJfdPA9AnKJggMIAYqNaArFQHI0imIjmrLV0gEgeBQcQI5RbERb/aIj5zOSow6KjWij6ADyAwUHkEMUG/kh5wPJYUWxkR8oOoDoo+AAcoRiI79QdISLnpDqXA4UG/mhftER9IzkADKLmcYtyGdHPn9bm49L3+avbM9Irvj+1qUnomeccYaZQI5iI7/oZ0lbONKdkVzx/fAinx357DLxurRwAFlGsZHfGEieW27LBsVGftL30m3pCHxGcgAZE9MZAdOpgFatWiXt2zd8NepcVmjk8yKfXS7zUWwUjtSWjtT3OpefPxXm74dqzuvqiSdjNgqD/irrtnT07NnTvNd+LR18P7zIZ0c+u0y8Li0cQJZQbBQWxnRkF8VGYUlt6WAgORB+FBxAFuiJJ8VG4aHoyA6KjcJE0QFEBwUHEDA94eRqVIWrftHBmI7MotgobBQdQDRQcAABil6xsUoqBsVkwmLnbqrFEyQWmyCLnLthsGpSqcTG1U20aFwskXPLrXTSKueR3GEgeTCiV2xE5fu1SCbUfodKpWKls7Xedyt5y31mig4g/Cg4gIDQshEsLTaKyqY791yrpOptkfGL4hKPJ2+VQxoeDJct9YsOulf50+/KN99849yzo2UjKFoU9ZalFTXJ79Ci7jL06orEVpHi0Vu+V/F4jZQn/vNWUnGRFCf/MKcoOoBwo+AAAhCFYsO0DtT+SrnlV8w6VlZIqbPPhBecbS7zi6zz94OSJyTuL7ilg5LPbf0lN5V5Dp/XboD+0lo0o1QWVpQ4W1xVUjW1RDp3cO6GDGM60jN69GjZc889zdJWeESh2MjF9yv5ms1scVg5VyqlXO51C/VeIyU+pUw8Zfvih2Vo6n4hQNEBhBcFB5BhkWjZSJzMFJV1l4XOr5ULx06XoY/UP01ZJBM6DhVxfunsL6Oc7Ql6olS8VMo/dX7pTJx6FKV0bZre7VrzNyN7ORvqSOmu8UL/xH6VUpYoEOqeoLk3+4ma+aU1cRLU2blfa2WVLJXEv6Wj8/e1J2rhQdHRuFtuucVcVlGPj55EphYeegIZ+hnEc/T9aj+kMrG9v8x1vz8pf5P29yvxHZreTWRuorDx3UcLnz+PkvFXWwqRHLMVHWvXrnUeBZArFBxABumlbyPRjUp/tYyPrO0K0blL/ZaCBHPyPl6udX7BLL6wXNy9Vs2vlOkDS6W/aUloL2VXjxd5u6r25L6ki6cUMJInPXOlv3MiFh+9pTNG8mTJ2V57SxYjadOTpUTm5Ime90QtLCg6GqYztO+www7y7bffyv/93/+Z75GeSOp3Sk8glyxZEt5iQ+Xo+5VULCPd78+Jc2sLhq36fo0ZKlVXJ/epqZDaLlW1nNaNi6w/KORe/aJj2LBhZt4OALkTq66ujru/duh/XMxGy/r69euldevWZpufzZs3m2WLFg3XManP7XLX3ceUPp9ud2/kSyKfXRjyPfPMM3LxxRebx8I9bkO7ZhTJ0KnOXTV2YaIA6Gy268nGSJkgscQZ00L3xEl/de1YJdcm7ndOFA7e8RN6on+RVLl/73syoi0cvZO/55rX3FJ0bC0tYIpWXOv/HNotJfXfECKpEwPutttu8tVXX5l1bKHfZfd7rbbddltp1aqVfP311+EuOKL8/dLvzJ87S43bjcrkqpTST7cUJ9ql8fYuNaEZH2WTOjGgfkYoOJArRx55pMyaNcu5Z1cI51eiM42no6amxlnzp8+VzvNlej9FPq9091Pk80p3P5Wab+rUqfqNM7dE0eFsDZeaipK4DCyPu6nN/bELdS1ePlDi4xclVj8tj5fI+LhuNVLub9m/vpS/T8ei8YnjVBIv/9R5Tue4bbklH/Pjn8Ohz5/y7wyLadOm1f4b/T4jTf38+Un3+TK9n2pKvj322KP2GLVs2TK+ww47xEeNGhV/77334j169DDbE0VHfPXq1c5fhEeuvl/J71DKc6ZIPpb63dKb5ftlzZW638L4+Ea+l7mmnwn9bOi/sWfPnvFly5Y5j/hL9/Oc6f0U///rle5+Kuz59HPYmEy/brr7qWwdv4ZLFQBbTX+1ThQdZj0a3WUWycOeX1MTOvSX0oGj5HbnsrKLHhkq7l7t+5ZKyZjba/t2m8tlNmW8hOl6kvzlNBNdqkyXrdouVMl+5iVn9w9VP/PUlo1wt4Lljl7Fa+PGjZIoNEzXKv0O6S/U48aNk/3339/8Wpg4kTS/Xuuv2OH+9Tp736/kd8jempf298vJNdcZkG5y1XbvSjBdwbqH9sIMqS0b+hnRVrA2bdo4jwLIFQoOIABhLzraD7lWxk8dKkUxbW6dK/0X1e0jntReyv5cLlJWZJpEb+9SLom9kjqUSaVeLtMZnN17zHhZaLuSTZbpSdVC6W0yxWJFMrTbwlB1+6DYSM8NN9ygre91Co2ddtrJeVSkXbt25kQyrEVHtL9fiVxTFooU+7y2jpMa2Nl7wYYQsBUb+lkBEALpNJEomtS80t1Pkc8r3f1UVPNFoXsVsiO1G9WVV17pbPWXic9fqnSfL9P7qa3Nd/vtt8f//e9/m/X6UvdbtWqV6TKjxzSs3auQHfW7Uelnw8X/v3mlu58in1e6+yn9TDYm06+b7n4qW8ePFg4gQNHrXoUgpLZs6BWYbrvtNrMOO/2epLZo+Al7Sweyg5YNIPwoOICAUXQUtvrdqCg2Mouio7BRbADRQMEBZIGecE6ePNmsU3QUDsZsZAdFR2Gi2ACig4IDyBKd7I2io3BQbGQXRUdhodgAoiW2cePG+I9+9CPnrj/9cjc2wdJ//vMfs2zs+TK9nyKfF/nscp1PL+k5ePBgs86JaH5qaMxGrj9/Yf9+NPd1V69eLWeeeWb4ZyNHk+nnyS02evToYf6b2lCxwffDi3x2QeTTCUs3bdrk3LPLZb5sHT9aOIAso6UjvzFAPLf0xFNPQLt3705LRx7S99ItNvQ9bqzYABAOMb18VToV0KpVq6R9+4avAp7LCo18XuSzC0u+adOmycCBA806LR35IZ1uVGH5/PnJl3yfffYZLR15JrXYcFs29t57b+dRf3w/vMhnF0Q+nc8mbq6O6y+X+bJ1/GjhAHJET0y5elX+YMxGuLgtHYzpyA+pxYa+p7RsANFCwQHkEEVHfqDYCCc9IWUgefTVLzYYIA5EDwUHkGMUHdFWf8wGxUa4UHREG8UGkB8oOIAQoOiIJgaIRwNFRzRRbAD5g4IDCAmKjmip342KYiPcKDqihWIDyC8UHECI6Aksl8wNP8ZsRBNFRzRQbAD5h4IDCBnm6Qg3io1oo+gIN4oNID8x07gF+ezI5y+IfHrZR2YkD5eGxmzk2+cv3/MxI3n46OfELTYam0E86p+/VOTzyqd8zDSeRAsHEFK0dIQLA8Tzi57I6gmtntjS0pF7euzdYoMZxIH8w0zjFuSzI5+/IPMxI3nupdONKl8/f37yJZ+2dJx88sny1ltv0dKRI6nFRroziOfL50+Rzyuf8jHTeBItHEDI6YkuV6/KHcZs5Df9Ff3xxx9nTEeOpBYb+h7QsgHkJwoOIAIoOnKDYqMwtGnThoHkOVC/2GCAOJC/KDiAiKDoyK7UYmP48OEUG3lOT3QpOrKHYgMoLBQcQIRQdGRH/ZaNm266yawjv1F0ZAfFBlB4KDiAiKHoCBbdqAobRUewKDaAwkTBAUSQnhBzydzMo9iAougIBsUGULgoOICIYp6OzKLYQCqKjsyi2AAKGzONW5DPjnz+cplPLyPJjOTNk1ps2Cb14/PnVSj5mJG8+fT4usVGpmYQL5TPn4t8/sKej5nGk2jhACKOlo7maazYQGHTE2M9QdbZr2np2Hp6rNxigxnEgQKmM42no6amxlnzp8+VzvNlej9FPq9091Pk80p3PxWGfFOnTtWpTM3t6quvdraiIdOmTUvrmPH580p3P5UP+VauXBnv0aOH+awcccQR8dWrVzuPwI8eIz1Wesz02OkxbEyu3t9Mv266+ynyeaW7nwp7Pv38NybTr5vufipbx48WDiBP6K/0XL0qfYzZwNZwWzoY05Ge1JYNPWa0bACFjYIDyCMUHemh2EBT6AkzA8kbV7/YYIA4AAoOIM9QdDSs/pgNig1sDYqOhlFsALCh4ADyEEWHHQPEkQkUHXYUGwD8UHAAeYqio6763agoNtAcFB11UWwAaAgFB5DHKDqSGLOBIFB0JFFsAGgMBQeQ5/RE+8EHHzTrhVh0UGwgSIVedFBsAEgHBQdQAPSEoBBbOig2kA2FWnRQbABIV6y6ujoei8VEb3EzP0lio2V9/fr10rp1a7PNz+bNm82yRYuG65jU53a56+5jSp9Pt7s38iWRz458jefTE4JLLrnEPJbvJ+CpxcaIESPkpptuavbxawifP/KtXbtWhg0bJm+99ZYcccQR5vvWtm1b59H8klpsdOvWTcrLy6VNmzbOo158/sinCjFfUVGR1NTUmG1+CuH4MdO4Rab3U+TzSnc/RT6vdPdTqfmmFsCM5OnMIN7U4+cn3efL9H6KfF7p7qcyma8QZiRPnUG8Z8+e8WXLljmP+Ev3+GV6P8X3wyvd/RT5vNLdT+n3pDGZft1091PZOn4NlyoA8o7+6p/P3avoRoVc0i5F+Twjua0bVUMtGwCgKDiAApSvRQfFBsIgX8d0MGYDQFNRcAAFKt+KjtRigxnEkWv5VnRQbABoDgoOoIDlS9FRv9hgUj+EQb4UHRQbAJqLggMocFEvOup3o6LYQJhEveig2ACQCRQcAMwJ++TJk816lIoOxmwgCqJadFBsAMgUCg4ARmlpaaSKDooNREnUig6KDQCZFNu4cWP8Rz/6kXPXn/7Hp7EJjP7zn/+YZWPPl+n9FPm8yGdHPjv3+fSSnoMHDzbrYT2Rb2jMRq6PX9jfX/J5ZTPf6tWr5cwzz5QlS5aEdnJAPR5usdGjRw/z34SGig3eXy/y2RVivm233VbnvHPu2eUyX7aOHy0cAOoIe0sHA8QRZXririfw3bt3D2VLh2Zxiw3N2FixAQBpSWfmQMVMk17p7qfI55Xufop8Xunup5qSb2oIZyTP5Azi6e6n+Px5pbufIp9XGGckT51BXLNpxnTw/nqlu58in1e6+6mw59PvU2My/brp7qeydfxo4QBgpa0IYbp6FWM2kE/clo6wjOlIbdnQTLRsAMgkCg4AvsJSdFBsIB/pCX0YBpLXLzYYIA4g0yg4ADQo10VH/TEbFBvIJ7kuOlKLDXcQO8UGgEyj4ADQqFwVHQwQRyHIVdFBsQEgWyg4AKQl20VH/W5UFBvIZ9kuOmzFRmOXxgSApqLgAJA2LQCycclcxmygEGWr6KDYAJBtFBwAtkrQ83RQbKCQBV10UGwAyAVmGrcgnx35/BViPr1sZqZnJG9ozEa+HT/y1UW+uoKYkVz/nW6xoQWNfof9njPqxy8V+bzIZxdEPmYaT6KFA0CTZLqlgwHiwBba0qEFQY8ePTLS0qF/6xYb+pwNFRsAkHHpzByomGnSK939FPm80t1Pkc8r3f1UkPmmZmBG8lzMIJ7uforPn1e6+ynyeaW736pVq+KHHXaY+W4c0cQZyVNnEO/Zs2f8s88+cx7xl24+xfvrle5+inxe6e6nwp5Pv3eNyfTrprufytbxo4UDQLNoq0Rzrl7FmA3An7Z0PP74400e05HasqFds2jZAJALFBwAmq2pRQfFBtC4Nm3aNGkgef1igwHiAHKFggNARmxt0ZFabAwfPpxiA2jA1l69imIDQJhQcADImHSLjvotGzfddJNZB+Av3aKDYgNA2FBwAMioxooOulEBTddY0UGxASCMKDgAZJwWFLZL5lJsAM3nV3RQbAAIKwoOAIGwzdNBsQFkhq3ooNgAEFbMNG5BPjvy+SOfl7tf6ozkyjapH8fPi3x25KsrdUZypQVIJmYQL5Tj5yKfP/J5bU0+ZhpPooUDQKBSWzp69erFDOJABmlLhxYY3bt3l7322ot5NgCEUkxnBEynAlq1apW0b9/euWeXywqNfF7ksyOfXdD5tBtVdXV1bfGRiuPnRT478tnpd2vvvffWKY2dLXYcPzvy+SOf19bki8ViWf9ebk2+bB0/WjgAZMVRRx3lrAHINFo1AIQZBQcAAACAwFBwAAAAAAgMBQcAj1WTSiU2qEJWOfcBZAbfLQCFiIIDAAAAQGAoOAA0yvwqG4uZ27bbDpJJK50HADRL6ncrFiuVCr5bAPIQBQeAhi2eIEVl3WVhPG4u7Tf/phly3mOLnQcBNNkrv6/z3Vo4droMfWSR8yAA5A8KDgAN6zUycTI0Uoqdu/vuf7azBqBZjrqhznerc5cSZw0A8kusuro67jbnuhOT2NbXr18vrVu3Ntv8bN682SxbtGi4jkl9bpe77j6m9Pl0u3sjXxL57MiXuXxrZlwkh835ubw1sUTayhqZfulhctnT5uGk656Wmqt7OnfSyzdz5kyZM2eOPPDAA83O15DU53a56w3lq58pdZ185MtUPve79cb9Z0m72FqZMfzwut+t62dLzVU9zOrW5tOJ/2pqapwtdo3lc/H+2pHPjnz++YqKihr9XhbC8WOmcQvy2ZHPXz7ke3xgTD66cpOM7vMj06+8aEap1EwpE0lZ12dY+USJdPzgaonfeHTyD33Uz/fkk0/KjBkzmGmcfFb5nK9iUEyqro7LyF6J13K+T59WDBKZPEg6PjWg9rtlHltxrcRHu20eSenm23bbbeucdNhE8fjZkM+OfHa5zJd6ku8nl/mydfwaLlUAFIzOh4i8UZW8WGfViuki3Tqbk6C6Fskjw2Y46wDS0bmbyNI0vlsPlyUeA4A8RMEBwOg1cr78dFhH82tM7zHjZaHzK2v7IdfK+KlDpSixPRabK8f9fazIO1XmMQCNKx69ULqXFXm/W4OvrvPd6r9ovMjbfLcA5B8KDgCOXnLDpk2m6Td1IGvidElGmm3J7b2OukE2TRriPAagcXW/Q1u+W73qbtcLNGg3RgDIMxQcAAAAAAJDwQEAAAAgMBQcAAAAAAJDwQEAAAAgMLGNGzemNQ/HmjVrpG3bts49u1xeR5h8XuSzI59d0PmmTJkis2bNkvLycnM/FcfPi3x25LPT52vZsqVs2rTJ2WKXy3wqzMdPkc+LfF5bk0/nx8n293Jr8mXr+NHCAQAAACAwzDRuQT478vkjn1f9/ZhpPIl8duTzl24+Zhq3I58X+eyCyMdM40m0cAAAAAAZ8Kc//UlatWold911l7MlSe/vuOOO5vFCRMEBAAAAZMCll15qxmzcfPPNtS0H7dq1M/e1BUAfL0QUHAAAAEAG7LTTTnLNNdfIN998I6tXr5bWrVubgdl6X7fr44WIggMAAADIkN/97neyzTbbmPX169ebpd7X7YWKggMAAADIEG3FuOqqq8yFHJQu9X6htm4oCg4AAAAgg7Q1o0WL5Gm2Lgu5dUNRcAAAAAAZ5LZy6CViC711QzHTuAX57Mjnj3xe9fdjpvEk8tmRz1+6+Zhp3I58XlHLt3jxYvnrX/8q8+bNk6qqqtrHkVl6vDt37iz9+vWT8847T3r16mW2Z+L9pYUDAAAAofTLX/5S+vbtKw8++KD861//otgIkB5bPcZ6rPWY67HPFGYatyCfHfn8kc+r/n7MNJ5EPjvy+Us3HzON25HPKyr5TjvtNHnuuefM+nXXXSfnnHOOdOvWTbbbbjuzDZn1/fffy9tvv23+//q2224z204++WSZPXu2WW/O+0sLBwAAAEJFf13XYmP//feX119/XW699Vbp0aMHxUaA9NjqMdZjrcdcj72+B5lo6aDgAAAAQGjomA3t1qP013Y9CUZ26THXY6/0vdD3pDkoOAAAABAaOkBcaTcqio3c0WOv74Fy35OmouAAAABAaOjVqJSO2UBuue+B+540FQUHAAAAQkMvfat0gDhyy30P3PekqSg4AAAAEBru1Y4YIJ577nvgvidNRcEBAAAAIDDMNG5BPjvy+SOfV/39mGk8iXx25POXbj5mGrcjn1fY8+mcMqqxeWWQHbFYzCyb898XWjgAAAAABIaZxi3IZ0c+f+Tzqr8fM40nkc+OfP7SzcdM43bk8wp7PvcXdVo4wiHd96Oh95cWDgAAAACBoeAAAAAAEBgKDgAAAACBoeAAAAAAEBgKDgAAAACBoeAAAAAAEBgKDgAAAACBoeAAAAAAEJhYdXV1XCf00Js7oYdtff369dK6dWuzzc/mzZvNskWLhuuY1Od2ueupk4ro8+l290a+JPLZkS/c+WbOnClz5syRBx54IJT56mdKXScf+aKQb++995aamhpni10u8yneX/IpfW6Xu56ar6ioyCxTtyF33PeoOf99YaZxC/LZkc8f+bzq78dM40nksyOfv3TzMdO4Hfm8wp7PVoQgd9J9Pxp6fxsuRQEAAACgGSg4AAAAAASGggMAAABAYCg4AAAAAASGggNAYObOnStTpkxx7m2xYsUK+X//7/859wAAQD6j4AAQmHHjxskFF1wg/fr1k7feestcXnH48OFy0EEHyeOPPy7fffedsycAAMhXFBwAAvPII4/I999/LwsWLJB77rlHnn/+eZk0aZK5ZN4tt9wi22+/vbMnAADIV7GNGzemNQ/HmjVrpG3bts49u0xfhznd/RT5vMhnRz67oPJdeuml8sQTT9S5fveee+5ZZwIhjp8X+ezIZ6fP17JlS9m0aZOzxS6X+VSYj58in1cu8umcMop5OMLBnYejOf99oYUDQKBGjx5dZ/bZHXbYQX73u9859wAAQL5jpnEL8tmRzx/5vFL303Ecf/3rX82vVdq6sXbtWvOYi+PnRT478tnp8zHTuB35vMKej5nGw4WZxgFEwpgxY0wrh47Z0BYPAM33pz/9SVq1aiV33XWXsyVJ7++4447mcQAIA1o4LMhnRz5/2c736quvmpu2FKR2V/KjV4dq3bq1c89u8+bNZtnY8zV1Px3H8fHHH8vIkSPN/VRhyFefnsh17dpVTj75ZHOc+fzVRT67bOb75ptvZI899jDfne22205Wr15t+tprP2v9Tn3xxRey0047OXsncfzsyOcvF/lo4QiXTLRwUHBYkM+OfP6yla+8vFxuvfVWWbZsmbMFQdt5553lwgsvlDvvvNPZYlcIn79U5LPLdr4bbrhBbr/9dvN8WlxoEaLPee2118rvf/97Z68tsp3PlenXJZ9dvuSj4AgXCo4U5PMin11U81122WVy3333mfV99tlHTjjhBOnQoUPtfwiQWevWrZPFixfLokWLzP0jjjjCTGK47777mvv15fvnrz7y2WU7nxYYbdq0qTOnjXZd1Fa5+q0biuNnRz5/uchHwREuFBwpyOdFPrso5rvyyitr+2nfe++98stf/tKsI3jz5s2Ta665RpYuXSqHH364KUJs84fk8+fPhnx2ucinrRw6XkO7UunAcf282lo3FMfPjnz+cpGPgiNcMlFwNNzJGUDOzZ49u7bY0InzKDayS2dJf/nll6VXr17y5ptvmq4qQJjoZabdsUi65LLTAMKGggMIOXfsgP5ieeKJJ5p1ZJcOINeWJaUzpn/22WdmHQgD7Tr161//2vyqeNVVV1m7UgFALjHTuAX57MjnL6h8Oht3p06dzBVovv76azOTMHJnwIABUllZaYoPnUE9VT5+/hqSr/m0y5zOGaNd6aqqqmqfB5ml70vnzp1NC+J5551nWhBV0O+vn0y/Lvns0t2PmcbDxe1Spd02G9LQ+0sLBxBib7/9tlkeffTRFBshoCdHSrtWIf9od8W+ffvKgw8+KP/6179q/88TmafHVo+xHms95nQVBfIbg8YtyGdHPn9B5XvyySdl8ODBcs4558jkyZPNduROQ+9HPn7+GpJv+XQ2/Oeee87cv+6668x73K1bN9O6iMz7/vvvzQ8q+p267bbbzDad80bHrKlC+/yRry4GjYcLg8YBAGim66+/3hQb+++/v7z++utmrpsePXpQbARIj60eYz3Wesz12Ot7QEsHkJ8oOAAABUvnWXn88cfNuv7arifByC495nrslXax0nE0APILBQcAoGA99thjZqndqCg2ckePvb4HSgftA8gvFBwAgIL10ksvmaWO2UBuue+BXiEMaLpVUjEoJhNsDWWLJ0hsUEViD5FF42JSOknXGtg/xapJpRIbtyh5Z2WFlMYmiHPPX8rrBWORTIjFzBiL5K1UKlY6DyXov9G2PRcoOAAABevDDz80Sx0gjtxy3wO9HDEQiF4jJT6lTBoeAh8hK6tkqYyXhfG4GdAdj1dKWYfkQ1og9X67XGp0+6LuMrRjGgVSgCg4AAAFy72qCgPEc899D9z3BGiWKm2FSP7Cn2zJSEinxUH3cVsM3H0T24rKpouM6S2xcQ/KhI5DZbqMkt7ptHLUSrakmFYSk6M0ma85LSCJgmP6wM7S2bmbqmrFdCk5u3+yuOrVP1GWjJK5ORweRcEBAACAvDKqrEqu1V/3Py0XKbssvS5F2lWqeKmUf6qtBTVSLkOlSAuEXiOlpqJEZOxCiY++REYmnrPEtCyMlGLnTxumxUaRVF2deN7Rzl9MFSnV1/G0uNTvJuXc3O5cKVZVLU08TyKjs09tYZV4vaq3Rbp3dp85UZQMFFla1eTSptla6C8J6dw2b95s3R6WG/madyNf825B5fvhhx+cryrCRJuube9Xrm58f5t+QzjZ3qum3vh+NO+Wi3yZUFJxUbIY6FAm146dLpXzGz/ZXjW/UqYPLJX+pltSeym7erzI21VNb4FwzB1XJJVn18jI5IT6ju7S2en+VFexjKztIpVycwuVFNqKYYogfdwUVkXOWJQqqUoUNJlme6/SvdHCAQAAgLyy5df9rZTSYhArHpW4nzh5dx5qksTzVXVJFAMz5tYtXHy6Qm2N4tEphYgprERGvaAtIckWjTBpobMBpnNr0aKFdXtYbuRr3o18zbsFlW+bbbZxvqoIE/0/Itv7lasb39+m3xBOtveqqTe+H8275SJfJmzpPpTsXpQ2t8Wg9pZutykfA8vloiGJYqDbULmststTQ9LvUmVT0kXLmPbSuVvqMUi2eDS5CHPY3qt0b7RwAAAAIK9Md1sUVs6VyqklUtq38ZPt9n1LpWTM7bXjPcxlZTN0WdviC7XL08NpDDJPt0tVvcv5rqyQ28ds+Xd27lKy5RgsniujZLz0r9OlK7soOAAAAJBXxp8tcpm2DHQcKt0XbblcbIM6lEmluYRsslWh95jxstAZ1N2+c3fnKlWJkqFDZ+m+tVepSjz3vRVLpXeaLRWNay9lUxYm6hOnBaTev7P9kEpZ2M3pHmYGwjezpaaZYps2bYprU0djVq1aJe3bN1wd6qAQ1djzZXo/RT4v8tlFKd+TTz4pgwcPNhNiTZ482WxH7jT0fuTj568h+ZJP/49a6S+IyL103498+fwp8nnxvQyXTHwvaeEAAAAAtpozt4a2InhuuZ/dO0woOAAAAICtpt2aLOMtzC3NblwFgoIDAAAAQGAoOAAAAAAEhoIDAAAAQGBi1dXVcXeAi/Y5Mxst6+vXr5fWrVubbX50+nulk8Q0JPW5Xe66+5jS59Pt7o18SeSzy8d8s2bNkhEjRnCVqpBwr1J15plnyv333+9sTeL7Ec187tV3Uv8WuaPviaqpqTFL5W5ryvur63w/opevqKjILFO3IXfc9yj1e2nT0PvLZXEtyGdHPn9B5eOyuOHCZXG3yJd8tpMd5E6670e+fP4U+bz4XoZLJr6XDZeiAAAAANAMFBwAAAAAAkPBAQAAACAwFBwAAAAAAkPBAQAAACAwFBwAAAAAAkPBAQAAACAwsY0bN6Y1D8eaNWukbdu2zj27TF+HOd39FPm8yGcXpXxTpkyRoUOHMg9HSLjzcAwaNEjKy8udrUn5+PlrSL7k23bbbc2S6/2Hg3u9/02bNpmln3z5/CnyefG9DJdMfC9p4QAAAAAQGGYatyCfHfn8BZWPmcbDhZnGt8iXfMxoHC6ZmNG4Pr4fXmHPx/cyXDLxvaSFAwAAAEBgKDgAAAAABIaCAwAAAEBgKDgAAAAABIaCAwAAAEBgKDgAAAAABIaCAwAAAEBgmGncgnx25PMXVD5mGg8XZhrfIl/yMaNxuGRiRuP6+H54hT0f38twycT3khYOIA8sGheT0kmrnHupVknFoJhMWJxYXTxBYoMqElsa2j/FygopjU2QRc7dtP4m9fUCojn0P356q59n1aTS2sf8MqT37wAAAJnSQquQdG4tWrSwbg/LjXzNu5Gvebeg8m2zzTbOV7Wp2kvZlLiM7OXcjbpE0dRbFppfveLxhdK9rGhLYZF4rKisuyzUxz4tl6XFpVKx0nksw7Sgsb1fubrx/W36DeFke6+aeuP70bxbLvIhnGzvVbo3WjiAvDFXJji/7sfGue0S6bQ4JPep2zKwSCZ0HCrTZZT0jk2Q2ZNKpfcYkemJE/ytah3QVpWYnvgnX6N0ULIFosktIL1GSnx0sXOnWPqPFVlalcyzqmqpyNj+ia0JHfpL6cDpUjm/kaymFSeZx7R8OPloAQEAIHMoOIA8Mb2sUjp/mvzlf/yY3mmf1C8aVyRDuzmtBovGyyjTMlAsIz8tlxIZLwvjI+W0IZWyMHFyX1JRI5VD2jt/2QgtNv7cWWrilVLWIblperdrzevUbXGpW/DU3pzuX/4WydxEEdS9czJP1YrpUtKls1nXlp3O3RKvt6LKuW+hxUbHKrk2Jc90KU3kjaf/bwQAAI2i4ADyxdhrnRP7YrmookRGveC2cjQkedI+/kSn1aDXRVI+cLpUNbcrUlXiZD7xlAunlCVO/bfYUhCkSnb7SnaTSrnV+9tUybEavWXUwHK5yBQLq6TqbfNQmubKhI6VUvrpyGSLiKtbZ9/XBAAATUPBAeQJ+8l8ekYVuy0LRTJ06pZuSk01aoZI6dhRMrdeK4vbGtFc7YdUmqKk5uxKKTItIckWjXRNL6uSzhXi6XLVnGOIwuJ/8YGUbox5f6GGRVu6cZpbcOOmAEQbBQeQJ1K7D2n3ovSVSLnpirXl1twuReOvLpOyC3Xg9paTJ39N7VKVKDw6dxeZWiX6L+/cpSTlGCRbPPwKiJKKi6RsyLXSvewyTpCQYQV0oYaVVbLUdLt0/9uxpfskAKSi4ADyxZi5zsl9vW5SDdKB19Nl6CNOWZAyiLrZOpTJtWNHye2N/kKbfpcq05WqdkB84l/6wqjageKm+HCPwcq5Ujm1REr7NlQ4adcz2fJvB7ZaYV+oQQuO6QM7C+2CABpDwQHkiZKKzjLXnMD0lqUVNWn/wlo8ukbK3+6dPPlJnPCI+7cdOkt35+RHT6VMC8JWnvwUj9ZfRDPXiqBdqRaKkzVx6/12udS4J0OJE6OaiqWJvMl/R/dFjf/a2n7IvebfnpECCwWn0C/UYK4MN3WoFDl/v1WFEYCCwkzjFuSzI5+/oPIx03i4MNP4FvmSr6kzGuu4BtPVyCl4tfWtaEXi5H5058TJfJFUXZ04yRenAJhSJlWJ/W/vosVDlUyI9U48gVsE6Mm/s38H98ppyYsZ6Gsk/6ahgsP5+7PLZWnZlr91t1eevRUFSwPMv69susjARJHvtD7WOQbmqm9a6DevO5kWLoqZxusqtHzMNB4umfhe0sIBYKukDiCtf6OlAIWksC/UoC2Y8S3drUwXykSOtK6OB6DQMNN4lm7ka96tUPM1f6bxzDMnGdoVxHJrzi+bUaInirb3K1c3vr9NvzVHoV+owSZTV3qzvVdNvfH9aN4tF/kQTrb3Kt0bLRwAADRFQV+oIVm01OZO/DtuH9PYhRoAFCoKDgAAmqCwL9SgRcvCxAs6rSNpXqgBSIf+Iq6+//57s0TuuO+B+540FQUHAABbSbsWVg4pk5FO68CWLlEp83DoJWWdVoPk/nX3cVsWtmwvdp4vOfDbHTfRcHerlNcz9Dn0xL/+9qar042yTiuImzd5y8RrAapz52TXvLffftsskTvue+C+J01FwQEAQIhxoQYUmn79+pmlXhkQueW+B+570lQUHAAAhBgXakChOe+888zytttukyVLlph1ZJ8ee30PlPueNBUFBwAAAEKjV69ecskll5h1nYeKoiP79JjrsVf6Xuh70hwUHAAAAAiV++67T04++WT54IMPpGfPnnL99debk2AGkgdHj60eYz3Wesz12Ot7oO9Fc1FwAAAAIHT+9re/yfDhw826du3Rk+Dtt9/eOp6JW/Nvemz1GLvdqPTY63uQCbHq6uq4+0LaH9RstKyvX79eWrdubbb52bx5s1nqJDENSX1ul7vuPqb0+XS7eyNfEvns8jHfrFmzZMSIEaZZc/LkyWY7ckcHzw0ePFjOPPNMuf/++52tSXw/opmvffvkNZdS/xa5o++JqqmpMUvlbmvK+6vrfD+in++1116TKVOmyMKFC+Xjjz+W//znP86eyCS99G2nTp2kT58+MmjQIFN8qEy8v7FNmzbF07m27qpVq2r/w+zH/QA09nyZ3k+Rz4t8dlHK557gUnCEQ0PvRz5+/hqSL/nc/zNMPdlB7qT7fuTL50+Rzyuf8ulnOlOf5yDyZev4NVyqAAAAAEAzUHAAAAAACAwFBwAAAIDAUHAAAAAACAwFBwAAAIDAUHAAAAAACAwFBwAAAIDAxDZu3JjWPBxr1qyRtm3bOvfscnkdYfJ5kc8uSvl0oqOhQ4cyD0dIuPNw6IRI5eXlztakfPz8NSRf8m277bZmyTwc4eDOw7Fp0yaz9JMvnz9FPq98yqf/jcnU5zmIfNk6frRwAAAAAAgMM41bkM+OfP6CysdM4+HCTONb5Es+ZhoPF2YatyOfv7DnY6bxJFo4AAAAAASGggMAAABAYCg4AAAAAASGggMAAABAYCg4AAAAAASGggMAAABAYCg4AAAAAASGmcYtyGdHPn9B5WOm8XBhpvEt8iUfM42HCzON25HPX9jzMdN4Ei0cAAAAAALDTOMW5LMjn7+g8jHTeLgw0/gW+ZKPmcbDhZnG7cjnL+z5mGk8iRYOAAAAAIGh4AAAAAAQGAoOAAAAAIGh4AAAAAAQGAoOAAAAAIGh4AAAAAAQGAoOIMR23XVXs1y7dq1ZIrfc98F9XwAAQOOYadyCfHbk8xdUvpqaGunUqZNst9128vXXX0vLli3NY8iNAQMGSGVlpdx7771y6aWXOluT8vHz15B8ycdM4+HCTON25PMX9nzMNJ5ECwcQYkVFRdK/f3/5/vvv5a677nK2IheWLl1qig3185//3CwBAEDjmGncgnx25PMXZL7Zs2fL6aefbtaff/55OfHEE806smfDhg1ywgknyOLFi+Xyyy+Xu+++23lki3z9/PnJl3zMNB4uzDRuRz5/Yc/HTONJtHAAIXfaaafJr3/9a7N+0kknyX333WfWkR3z5s2TY445xhQbhx9+uNx+++3OIwAAIB20cFiQz458/rKR77LLLqstNvbZZx/zi3uHDh1qfxFEZq1bt84UGYsWLTL3jzjiCJkyZYrsu+++5n59+f75qy9f8mn/at33u+++M2OlkDvadXT77bc371kmx3Dw/fAin10Q+WjhSKLgsCCfHfn8ZStfeXm53HrrrbJs2TJnC4K28847y4UXXih33nmns8WuED5/qfIl349//GN5//335fXXX5cePXo4W5ELS5YskZ49e8oBBxxg3pOG5MvnT5HPK5/yUXAkUXBYkM+OfP6yne/VV181N71Ma4sWjfeMXL9+vbRu3dq5Z7d582azbOz5mrrfO++8I++995650lN9YchXX6tWraRr165y8sknm+PM56+ufMk3YsQIeeCBB+S6664zxTxy5/rrr5fbbrtNLrnkEpk4caKz1S5fPn+KfF75lI+CI4mCw4J8duTzRz6v+vs9+eSTMmPGDJk8ebK5n4rj50U+u0zvp13mevfubdZp5cgdt3VDzZ8/X44++miz7idfPn+KfF75lI+CI6nhnwABAMhjxcXFMmzYMLN+zjnnmBNfZJcecz32Sls3evXqZdYB5A8KDgBZkc6vPEAuaFcq7Tr3wQcfmF/ZtWuPngTrIGYEQ4+tHmM91nrM9djre8BV+ID8RMEBACh4f/vb32T48OFmXccR6EmwXjFJC2Vumb/psdVjrMda6bHX9wBAfopVV1fH3f8AuL8+2tYzOagz9bld7nrqL6D6fLrdvZEviXx25At3vlmzZskzzzxjBoOGMV/9TKnr5CucfDqOQy9/vGDBAvnkk09q+yQjs7SPd6dOnaRPnz4yaNCg2vEbQb+/fvh+kE8Fka+oqEhqamrMNj+FcPwYNG5BPjvy+SOfV/399CSusrLSDB6vj+PnRT478tnp8+mcIqknHTa5zKfCfPwU+bzI57U1+VJP8v3kMl+2jl/DpQoAAAAANAMFBwAAAIDAUHAAAAAACAwFBwAAAIDAUHAAAAAACAwFBwAAAIDAUHAAAAAACExs48aNac3DsWbNGmnbtq1zzy6X1xEmnxf57MhnF3S+qVOnyowZM6SiosLcT8Xx8yKfHfns9PlatmwpmzZtcrbY5TKfCvPxU+TzIp/X1uTT+XGy/b3cmnzZOn60cAAAAAAIDDONW5DPjnz+yOdVfz9mGk8inx35/KWbj5nG7cjnRT67IPIx03gSLRwAAAAAAkPBAQAAACAwFBwAskKblQEAQOGh4AAAAAAQGAoOAAAAAIGh4AAAAAAQGAoOAFnT2KUBAQBA/mGmcQvy2ZHPH/m86u83bdo0Mw/HpEmTzP1UHD8v8tmRz06fj5nG7cjnRT67IPIx03gSLRwAAAAAAsNM4xbksyOfP/J51d9v6tSp5qYzjtfH8fMinx357PT5mGncjnxe5LMLIh8zjSfRwgEAAAAgMBQcAAAAAAJDwQEAAAAgMBQcAAAAAAJDwQEAAAAgMBQcAAAAAAJDwQEgK/TSgAAAoPAw07gF+ezI5498XvX301nGdbZxZhonnw35/KWbj5nG7cjnRT67IPIx03gSLRwAAAAAAsNM4xbksyOfP/J51d9PWzd0lnF3pvEPPvhA9t9/f7PO8fMinx357PT5mGncjnxe5LMLIh8zjSfRwgEgMCeddJIcfPDBMmfOHHNf/6OrhcaIESOkV69e8vrrr5vtAAAgf1FwAAjML37xC/nwww/lvPPOkxtuuEEWLFggBx10kDz66KPy05/+VHr27OnsCQAA8hUFB4DADB48WPbee2/5/PPPpaqqSv7973+bwXPaxHzLLbc4ewEAgHxGwQEgUOPGjZMdd9xRfvjhB9mwYYPZdvzxx9O6AQBAgaDgABCoIUOGSFFRkXNPZIcddpCbbrrJuQcAAPIdBQeAwLmtHIrWDQAACgsFB4DAua0c2223Ha0bAAAUGAoOIM/MmDHDnNSXlJRIly5dzABtPdnXZUM3vYa/3myPpd6aup9eDvf777+XI444os5+egtDvoZuQebT90jfq9/85jdSU1PjvIsAAOSPWHV1ddz9Pz53YhLb+vr166V169Zmm5/NmzebZYsWDdcxqc/tctfdx5Q+n253b+RLIp9doedbs2aNjB071kywh2jq2LGjTJgwQU488US+Hz7IZ6fPp1eEa6xozWU+xftLPqXP7XLX8zWf/mDV2PeyEI4fM41bkM+OfP5yne+vf/2rnH/++eZ+v3795Oyzzza/nHft2lX23Xdfsx3hpP9HpHOVjBo1SubNmycDBw40s7FH6fPXGPJ5BZFPW85STzpscplPhfn4KfJ5kc9ra/KlnuT7yWW+bB2/hksVAKGnJ6lusTFy5Eh56aWX5Fe/+pWceuqpFBsRoL9+9enTR+644w5zf9GiRWYJAEC+oOAAIm7YsGFm+eCDD8r48ePNOqKnU6dOZvndd9+ZJQAA+YKCA4iwa6+9VlauXGm6UV188cXOVkTRc889Z5YHH3ywWQIAkC8oOICIeu+99+Suu+4y61dccYVZIroWLFhgljruBgCAfELBAUTUzJkzzfKYY44xl1VFdK1bt85czlgde+yxZgkAQL6g4AAiyj1BpdiIvunTp0t1dbUccMABvJ8AgLxDwQFEkPb3X7p0qbl2Nieo0ZdaPKZzGUMAAKIktnHjxrTm4dBJxdq2bevcs8vldYTJ50U+u3zI9//+3/+Thx56SM477zx57LHHnK2IomXLlslhhx1m1hcuXGhmYldh/vwp8tnlMl/Lli1l06ZNzha7XOZTYT5+inxe5PPamnw6P062v5dbky9bx48WDiBiPv/889rxG7RuRJ92p1InnHBCbbEBAEA+YaZxC/LZkc9fNvNNnDhRhg8fLt26dTO/jiPatHVD38f777/fvK+usH7+XOSzy2U+Zhq3I58X+eyCyMdM40m0cAAR4/4iTutG9M2ePdsUG3vuuSfvJwAgb1FwABGyZMmS2gniOEGNvtTisU2bNmYdAIB8Q8EBRIh7gnr66afLoYceatYRTTU1NbRWAQAKAgUHECHMvZE/tNjQCf969uwpJ598srMVAID8Q8EBRISeoC5fvlw6dOggpaWlzlZEldu6wXsJAMh3FBxARKS2buy0005mHdG0ePFimTt3rmyzzTa0VgEA8h4FBxABH3/8Mf3980jqe3nggQeadQAA8hUzjVuQz458/oLO95e//EWuueYaOfroo2X+/PnOVkSRzjjbtWtXWbFihTzxxBNyzjnnOI/UFabPnw357HKZj5nG7cjnRT67IPIx03gSLRxABDBYPH9o64YWG/vtt5+cffbZzlYAAPIXM41bkM+OfP6CzKctGsccc4y0atVK3n33XenUqZPZjmgaPHiwPPnkk3L99dfLH//4R2erV1g+f37IZ5fLfMw0bkc+L/LZBZGPmcaTaOEAQi61vz/FRrRpywZjcQAAhYaCAwixb7/9lu5UeUTfS+3Le/zxx8tRRx3lbAUAIL9RcAAhpr+G6xWqDj74YDnrrLOcrYgqt3WDsRsAgEJCwQGEGK0b+UPn3dD5N/bYYw+KRwBAQaHgAEJKZxV3fxFnNuroc99LLTbatWtn1gEAKAQUHEBIua0bp512mhx22GFmHdG0bt262veT7lQAgEJDwQGEFFczyh/6XlZXV0uPHj3k5JNPdrYCAFAYmGncgnx25POX6XwvvPCCnHHGGbLXXnuZuTd22WUX51FEkb6XTz/9tIwbN06uvfZasy3Mnz9FvrqikI+Zxu3I50U+uyDyMdN4Ei0cQAjNmjXLLLV1g2Ij2pYtW2aKjRYtWtCdCgBQkJhp3IJ8duTzl8l8+lzdunWTzz//XF566SXp16+f8wii6KabbpKbb75ZBgwYIFOnTg395498dlHIx0zjduTzIp9dEPmYaTyJFg4gZGbOnGmKjT59+lBs5AEubQwAKHQUHEDIcIKaP2bPnm26VO233368nwCAgkXBAYTIkiVL5PnnnzeDPzlBjb7UK41tv/32Zh0AgEJDwQGESOpEf/vuu69ZRzTV1NRwaWMAABIoOIAQoTtV/tBiQyf869+/vxQXFztbAQAoPBQcQEjoCery5cula9euXD41D7itG3//+9/NEgCAQkXBAYQErRv5Y/HixTJ37lyzfvrpp5slAACFioIDCIGPP/6Y/v55xH0v9frr06ZNM+sAABSqWHV1dVz/TzF1YhLb+vr166V169Zmm5/Nmzebpc6o25DU53a566mTo+jz6Xb3Rr4k8tlFOd+DDz4oY8aMkZ///OfmUqpBWTQuJr1locRH1x1T4G5fmPjf27vUSOWQhicBcunf2fdfJRWDiqTq6riM7FAhpR2r5Nr4SBHf/VMtkgmx26Xzp5VS1qGh10iV8nq9nE05smnTJtMtbsWKFc4WAEChOvLII2XWrFnOPbtCOL/S/3NMPN64mpoaZ82fPlc6z5fp/RT5vNLdT5HPK939VHPz9e3bV7+l8YcfftjZEpBF4xOvMz6+0LmbtDA+PvHa4xc5d7fCwrESL6lo5N/+aXm8xHnNtPY3eUri5Z8699L6m5p4+cCm/RsybfLkyea91JtNup+rdPdTfH+90t1Pkc8r3f0U+bzS3U+Rzyvd/RT5vNLdT2UrX8OlCoDAzZ8/39yKioqC707Vq7+Ml1Eyd7FzXy2em9gyXvr3SrYmlE5a5WyfYH6ZSN4myKLkVou5MsHdb5y7l7Y4xGRC6ut4JPdxXyO5r27rncgzXYZ2LJX77i2V3mNEppcVbcmVDpO9VCpWJl+jdFBpymsEyx2Lc8ghh5glAACFjoIDyLHUsRu77rqrWQ9OsfQfKzLqhS3lw6IXRklJxUWJR1ItkgnFS6X807hpIq2pWCq3+5zwTy+rlM5mv4UyfkzvtE/qF40rkqHdFprnjy9KlEHFWiC0l7IpieeRksRrV8ovL6uUhYm8JRXpd/MyxcafO0tNPNklS03vdq15naC7W2k3qsrKSrM+ZcoUswQAoNBRcAA59O2332b96lTFJ44XebtKkuXDIpk7pkRK+zZ8Mt9+SKX/Cf/Ya50T+2K5qKKkTjHjT19XZPyJTpnT6yIpHzhdqlYm7zZZVYWUJp5y4ZQySU1b0qWzsxYsfS//85//yB577CEHHXSQsxUAgMJGwQHkkLZu6BWqevfubSaIywrtVjW1UuYmTu5XTbpdRg0slf5OS8AWxTLy01Kp7Oh0eRpU4RQoXs05mR9V7HapKpKhU0WWVm1FtymLUYnarXRsvS5jCd07p9k60kxua9Vf/vIXswQAABQcQE7lZu6NztJ54HSpnL9I5s6YLuOvrtsaUKtDmVRqdyftUnV2pRTVjs+oa/qKKmdNpGpF8oQ7PdptKvn87i3tblM+9N9SdmG5LC1uaMxJMHTeDZ1/o3PnzlzaGACAFBQcQI7orOL6i/gOO+yQ5RPU9tL/7BKZXtZbhk5NDhb3WFkhpfUGivu2ZIyZ6+xXr5tUg3QsyXQZ+ojzCub1MjSoO1EoXTt2lO+Yk6CkjsXR9xQAACRRcAA5ktq6ob+KZ1P7vqViSpyx/esNFnckTtrvrVgqvU13p5gUzSiVe31aH0oqOstcs19vWVpRk/bA7OLRNVL+du9kl6qOQ0Vq/zbZAqNXqapYmbjXRYujrbtKVfHohdK97DLz99mwbt26HLVWAQAQfrGNGzfGf/SjHzl3/a1Zs0batm3r3LPTwZKqsefL9H6KfF7kswtLvqOOOkqWLl1qZqIuLS012xBNjzzyiPziF7+QY489Vl588UVnq11YPn9+yGdHPn/k8yKfHfnsCiEfLRxADjz//POm2NArGfGLeHp0jpDkAHPvLRvzazTEbd0466yzzBIAAGwR0xkB06mAVq1aJe3bNzygM5cVGvm8yGcXhnzDhw+XiRMnysiRI2X8+PFmO6Jp2bJlcthhh5k5VHS9Y8eOziN2Yfj8NYR8duTzRz4v8tmRz64Q8tHCAWTZ559/XmeAMaLNfS+1dUNniwcAAHVRcABZpieoWnSccsop0r17d2crosrtTnX22WebJQAAqIuCA8gyWjfyx+zZs003qsMPP1xOPfVUZysAAEhFwQFkkQ4Uf+6550x/Sa5MFX1u8ch7CQCAPwoOIItS52rYbbfdzDqiqaamhtYqAADSQMEBZNHMmTPNkhPU6NNiQyf807EbXbt2dbYCAID6KDiALNHWjffee0969eolxx9/vLMVUUXrBgAA6WGmcQvy2ZHPXzr5zjvvPJk0aZLceuutct111zlbEUWLFy+W4uJi2Weffcyg8R133DH0nz/y+SOfF/nsyGdHPn/kS6KFA8iCjz/+WGbNmiXbb789A4zzgNu6od2ptNgAAAD+mGncgnx25PPXWL4777xTrrrqKhkyZIhUVFQ4WxFFif9mmjEbK1askL///e/Sp08fsz3Mnz9FPn/k8yKfHfnsyOePfEm0cABZQH///KHvpRYb/fr1qy02AACAPwoOIGDz5883tx//+McUHHkg9dLGAACgcRQcQMBSWzdatOArF2XasqHv584770zBAQBAmjj7AQL07bff1v4izmDx6NP3Usdw6Hu59957O1sBAEBDKDiAAOmv4XqFqp/97GfSo0cPZyuiirE4AABsPQoOIED0988fc+fONfNvHHbYYXLaaac5WwEAQGMoOICALF++3PwirhPqUHBEH60bAAA0DTONW5DPjnz+bPn+8Ic/yOjRo2XEiBHyX//1X85WRNG6devM3BvV1dXy5ptvysEHH+w8skXYPn/1kc8f+bzIZ0c+O/L5I18SLRxAQBgsnj+0dUOLjTPPPNNabAAAAH/MNG5BPjvy+auf77nnnjMDxY866ijT7x/RdsYZZ8jTTz8tf/3rX2XYsGHO1rrC9PmzIZ8/8nmRz458duTzR74kWjiAANDfP38sW7bMFBudOnXi/QQAoAkoOIAM+/zzz03Bse2223KCmgdSi8dWrVqZdQAAkD4KDiDD9ARViw49Qe3SpYuzFVHFpY0BAGgeCg4gw9xfxBksHn2zZ882XaqKi4ulb9++zlYAALA1KDiADFqyZIkZMH7ggQfyi3gecIvHU0891SwBAMDWo+AAMii1v/8222xj1hFNNTU15v3caaed5Oc//7mzFQAAbC0KDiCD6O+fP7TY0An/9L0sKipytgIAgK1FwQFkiJ6gLl++XE466SQ54ogjnK2IqtTWKgAA0HSx6urqeCwWE73F4/HkRsv6+vXrpXXr1mabn82bN5tlixYN1zGpz+1y193HlD6fbndv5Esin12u8/32t7+VyspKeeCBB+TSSy81jyOadLJGHSjetWtX+Z//+R++H846+chnWycf+chHPtVQPmYatyCfHfn8vf7663LssceaeRreffdd2XPPPZ1HEEXXX3+93HbbbXLTTTfJjTfeyPfDgnx25LMjnz/yeZHPLsr5Gi5VAKRlzpw58u2335ruNxQb0bZp0ybG4gAAkEEUHEAGPPPMM2bJCWr06diNFStWyBlnnCHdunVztgIAgKai4ACa6b333pNXXnnFDBTXAeOItscee8wsKR4BAMgMCg6gmXT8hjr++OPNEtFVXl5uusf169dPzj//fGcrAABoDgoOoJnmzZtnlnpVI0Tbueeea5ZXXXWVWQIAgOaj4ACaSWeiVmvXrjVLRI9ejcq9dJ8WHTp+AwAAZAYFB9BMp512mlnqpVQnTpwoy5Ytk40bN5ptCKcNGzbIa6+9Jo8++qgpMG6++WazXcfgjBkzxqwDAIDMiCVOjNKah2PNmjXStm1b555dLq8jTD4v8tkFkW/48OHy3//93849RI22Ut1www1y3XXXOVvq4vvhRT478tmRzx/5vMhnF+V8tHAAGTBu3Dh55JFH5LzzzpOePXuaCQARXlpgHHPMMfKrX/3KzAz/0ksv+RYbAACgeZhp3IJ8duTzRz6v+vtNmzZNnnzySZk6daq5n4rj50U+O/LZkc8f+bzIZ0c+u0y8Li0cAAAAAAJDwQEAAAAgMBQcAAAAAAJDwQEAAAAgMBQcAAAAAAJDwQEAAAAgMBQcAAAAAALDTOMW5LMjnz/yedXfr7Ky0szBMXnyZHM/FcfPi3x25LMjnz/yeZHPjnx2mXhdWjgAAAAABIaZxi3IZ0c+f+Tzqr8fM40nkc+OfP7I50U+O/LZkc9ftvLRwgEAAAAgMBQcAAAAAAJDwQEAAAAgMBQcAAAAAAJDwQEAAAAgMBQcAAAAAAJDwQEAAAAgMMw0bkE+O/L5I59X/f2YaTyJfHbk80c+L/LZkc+OfP6ylY8WDgAAAACBYaZxC/LZkc8f+bzq78dM40nksyOfP/J5kc+OfHbk85etfLRwAAAAAAgMBQcAAACAwFBwAAAAAAgMBQcAAACAwFBwAAAAAAgMBQcAAACAwFBwAAAAAAgMBQcAAACAwMSqq6vjsVhM9BaPx5MbLevr16+X1q1bm21+Nm/ebJYtWjRcx6Q+t8tddx9T+ny63b2RL4l8duQLd76nn35aZs2aJQ899FAo89XPlLpOPvKRj3yKfHbkI59qKB8zjVuQz458/sjnVX8/ZhpPIp8d+fyRz4t8duSzI5+/bOVruFQBAAAAgGag4AAAAAAQGAoOAAAAAIGh4AAAAAAQGAoOAAAAAIGh4AAAAAAQGAoOAAAAAIGJbdy4Ma15ONasWSNt27Z17tnl8jrC5PMinx357ILOV1lZaebgmDx5srmfiuPnRT478tmRzx/5vMhnRz67TLwuLRwAAAAAAsNM4xbksyOfP/J51d+v/kzjH3zwgey///5mnePnRT478tmRzx/5vMhnRz67TLwuLRwAAnPSSSfJwQcfLHPmzHG2JAuNESNGSK9eveT11193tgIAgHxFwQEgML/4xS/kww8/lPPOO09uuOEGWbBggRx00EHy6KOPyk9/+lPp2bOnsycAAMhXFBwAAjN48GDZe++95fPPPzeFx7p162TTpk0Si8XklltucfYCAAD5jIIDQKDGjRsnO+64o2zevFm+/fZbs+3444+ndQMAgAJBwQEgUEOGDJGioiLnnsgOO+wgN910k3MPAADkOwoOAIFzWzkUrRsAABQWCg4AgdNWDr3s3nbbbUfrBgAABYaZxi3IZ0c+f4WW77PPPpNPP/1UPvnkE7NeXV1tXkMHh3/55ZdmcPj69esl8d8X+e6778zfxONx8/f6/Fp4tGzZUlq1aiU77bSTtG7d2nS7atOmjSlMdKB5x44dZd9995X99tvP/E2mj0u6+yk+f17ksyOfHfn8kc+LfHZRzkfBYUE+O/L5y9d8a9eulTfeeEOWLVsm77zzjrz77rvy/vvvy4YNG5w90qdXpnKLjq3VpUsXczndrl27ymGHHWYuqavbbMJ0/GzIZ0c+f+TzIp8d+ezI5y9b+Zhp3IJ8duTzly/5/vnPf5q5MvS2ePFiU1zYaGuEtjzss88+0qFDB9lrr72kXbt2sueee8ruu+8uu+yyi2m50HEb22+/vcmoBYfS1/n+++9N64e2gvz73/+Wr776Sr744gtZvXq11NTUmFYTbT2pqqoyEwXaChV9LZ08sHfv3tK3b185+uijzfZcHj+Vqdclnx357Mjnj3xe5LMjn10mXpeCw4J8duTzF9V8//d//yfPPvusPPfcc/L888/LRx995DySpIVD9+7d5fDDD5du3bqZWcN/8pOfyM477+zsETy9nK4WQtq6oq0sb731lixdulQ+/vhjZ48k7ZZ1wgknmNvPfvYz2X///Z1H7Arh/U1FPn/k8yKfHfnsyOePfEkMGgcKjLYsPPHEE1JaWmpO0nU5ceJEU2x06tRJzj33XLn//vtNN6qvv/5a5s6dK3/+85/lwgsvlCOPPDKrxYZq0aKF6U6lOW+88UaZPn26ybpy5UqZOnWqXHnllaYo0taSmTNnyuWXX266WxUXF8utt94qK1ascJ4JAADkAgUHUCBeeOEFueCCC2TXXXeVYcOGmRP3H374wbQI3H777abA0FaDxx9/XIYPH25aNMJMB5YPGDBA7rjjDlmyZIn5lUazDx06VHbbbTfTJew3v/mNHHDAAeZSvA8//LDpygUAALKLggPIYzq4+84775TjjjtOTjrpJHnsscfMSfcpp5wiDz30kLmqlBYi11xzTegLjMboGBJtndHWG71SlnYVu/jii02Bpa00ur7HHnuYFhHtmgUAALKDggPIQ9rdSH/d15Pwq666St577z1TUPzxj380j+nJ+EUXXWROwPOVFlUPPvigGZBeUVEhp556qul2ddddd5ljcc4558j//u//OnsDAICgUHAAeUTnw9ACQ+ew0PEL2sKhYx/mzJljukxdf/31pitSodGJB5955hlZvny5ac3RK2hplzLtTnbaaafJvHnznD0BAECmUXAAeUDHYugM3nqZWu1CpS655BJTZEybNs1ctQlirrCl41V0vMcf/vAHczlfLUS0y5kWJf/4xz+cPQEAQKYw8Z8F+ezI5y+X+aZMmSJjxoypvUysjlW47rrr5MADDzT30TBtCdKbzgOifvvb38rYsWNr5w1RfP68yGdHPjvy+SOfF/nsopyPFg4gorTAKCsrk/PPP9+sa9egV1991YxboNhIn3Yz0wkGtUhT2vJxyCGHyOzZs819AADQPEz8Z0E+O/L5y3a+Rx55RH71q1+ZQdA6d8Ytt9xiLgeL5nnzzTfld7/7nRnzon7961+bLmp8/rzIZ0c+O/L5I58X+eyinI8WDiBiRowYIb/4xS9MsaHzZegM3BQbmaEzqusVvO655x7ZbrvtzBWtjjrqKMZ2AADQDBQcQETojNl9+vSRBx54wMwtoZd61RnBW7Vq5eyBTLnssstMa0e/fv1MNzW9pO7kyZOdRwEAwNag4AAiQOeL6Nu3ryxcuFCOOeYYee2118xVlRCcgw46SF566SUzUaBOlqjH+7bbbnMeBQAA6aLgAELuqaeekv79+5t+lhdccIEpPrp06eI8iqDdcccdcu+995p1HWCuYzwAAED6KDiAEJsxY4aceeaZsnnzZnOyq4PFkX2//OUvpbKy0lwq9/e//33tFa0AAEDjKDiAkHr++eelpKTErN94443yxz/+0awjN/S90KtXbbvttmbyQJ37BAAANI6CAwihd955RwYNGmTWtQuPziKO3Dv55JNl1qxZZn3cuHG1Xa0AAIA/Cg4gZHSAso7VWLdunbns7YQJE5xHEAannHKKPPHEE2b98ssvNy1RAADAX6y6ujqu/ZL1Fo/Hkxst63rN/9atW5ttfrSfuWrRouE6JvW5Xe66+5jS59Pt7o18SeSzy5d8elWkJ598Uk444QR54YUXnK0IGy0ER40aJXvvvbe8+OKLsvPOO5vtfD/Ip/S5Xe46+chnWycf+QohHzONW5DPjnz+MpXvscceM60bu+22myxdulT23Xdf5xGE0YABA8xg8nPPPbd2QH+UP3+KfHbk80c+L/LZkc+uEPI1XKoAyBrtQqVXolI6wzXFRvjdfffdsvvuu5suVtOmTXO2AgCAVBQcQEjcfPPNsmbNGiktLZVhw4Y5WxFmRUVF5jK5St8/AADgRcEBhMCKFSvMBHOKK1JFy6WXXip9+vSR9957T+677z5nKwAAcFFwACFwzz33mKVeleqQQw4x64gOdyLAv/zlL2YJAAC2oOAAcmzjxo0yceJEs66XWUX06GzwPXv2lA8++ECmTp3qbAUAAIqCA8ixyZMnm6JDJ5WjdSO6zj//fLOcNGmSWQIAgCQKDiDHZs6caZYDBw40S0TTOeecY5YzZsyQDRs2mHUAACAS27hxY1rzcOjVc9q2bevcs8vldYTJ50U+u7Dl0wnjtIWjpqam0WthI9yOO+44mTdvnkyfPl1OP/10Z2tdYfv81Uc+O/L5I58X+ezIZ1cI+WjhAHLo1VdfNcXGoYceGtliY9WkUjOTqHsrnbTKeURk0bi6961WVkhpbIIscu6m9Tch1bdvX7NcvHixWQIAgASdaTwdNTU1zpo/fa50ni/T+ynyeaW7nyKfV7r7qabmmzhxYjzxNYyff/75zpZoqakoSeQfH1/o3I8n1sYn/j0lFcnjsXDslnVfn5bHS1KeI62/CamZM2ea9/OUU05xtnil+7lKdz/F99cr3f0U+bzS3U+Rzyvd/RT5vNLdT5HPK939VLby0cIB5JBe1UgdeOCBZhk1VSumi4ztL8XOfUmsXVRRItNnzJW6bRSrpGJQTCbU/vC/SCbESqViZWLZcahMl1HSOzZBZk8qld5jRKaXFUWylcN9H933FQAA0KUKyKnVq1ebpc5YHUXFJ44XGdNbYoMqaguM9kMqJT6lTNLrIFYsIz8tlxIZLwvjI+W0xN8uHCtSUlEjlUOi18Vsr732MstVq6LZJQwAgCBQcAA5tH79erPcaaedzDJyeo2UeLxGymWoFLnjOFKKj0Ljvo/u+woAACg4ADRbeymbEk8UHsnbwm6J4mOcOwQcAAAUOgoOIIdat25tlt98841ZRouOy9BxGM5dh+lm9XZVw60cK6tkqbOaT9z30X1fAQAABQeQU+3atTPLmpoas4yW9tL/bJGhV6d2oUoUIX8eJdKts3UMx6gXki0fq+ZXynSzll+qq6vNkvlUAADYgoIDyKH999/fLN9//32zjBodIF5zduWW8RuxIhnabaHER2+5blVSeyn7c7mU6ADzxH6XSamMdx6RDp2lu3OVKi1HOncpiexVqtz30X1fAQAAM41bkc+OfP6amk8n/uvTp4+Z+O+tt95ytiKqxowZI+PGjZPrr79eJkyY4GytK0yfPxvy2ZHPH/m8yGdHPrtCyEcLB5BDRx55pLRs2VKWLVvGpVTzwPz5882yV69eZgkAAERiOiNgOhWQngw11i85lxUa+bzIZxe2fGeeeaY89dRT8tBDD8lFF13kbEXUrF27tvZXIr0sbqtWrcx6fWH7/NVHPjvy+SOfF/nsyGdXCPlo4QBy7KyzzjLLqVOnmiWi6cknnzTLs88+27fYAACgEFFwADk2ePBg063queeek3feecfZiqh57LHHzHLIkCFmCQAAkig4gBzTYuPSSy816/fcc49ZIlpmzZolr7/+urk61cCBA52tAABAUXAAIXD55Zeb5QMPPEArRwTddtttZvmrX/3KLAEAwBYUHEAIdOnSRa666iqzftNNN5klomHixImyYMEC+clPfiK//OUvna0AAMBFwQGExI033miuclRZWSmPP/64sxVhpjPE33DDDWZd3z8AAOBFwQGExC677CK33nqrWf/1r38tH330kVlHeF1xxRXy5ZdfyrnnnisDBgxwtgIAgFTMNG5BPjvy+ctkPp2L469//auccMIJ8sILLzhbETY6k/ioUaOkU6dO8tprr8nOO+9stkf980c+O/L5I58X+ezIZ1cI+WjhAELm7rvvlkMPPVRefPFFGTFihLMVYVJeXm6KDXX//ffL7rvvbtYBAIAXM41bkM+OfP4ynU+vVNWvXz9Zt26d/O53vzO/piMc5syZI6eeeqpZ18sYX3bZZWY9nz5/inx1kc8f+bzIZ0c+u0LIRwsHEEKHHHKITJkyxazfcsstXLkqJHRyxjPPPNOsjx49urbYAAAA/ig4gJA66aSTZPr06Wb95ptvlt/85jdmHbmh78Upp5wimzZtkmuvvVbGjh3rPAIAABpCwQGE2Nlnn21msW7RooW5gtWFF17oPIJsuu+++6S0tFTi8bi5DK470R8AAGgcBQcQcmeccYbMnTvX9LF89NFH5dhjj5UVK1Y4jyJoOiGj23VKiz7t4gYAANJHwQFEgBYZ8+fPl969e8vLL78sRxxxhEyaNMl5FEFYvny5HHfccXLnnXfKdtttZ473dddd5zwKAADSRcEBRESXLl1kwYIFMnz4cPn666+lrKzMXDZ3w4YNzh7IlHvvvVcOP/xwmTdvnhx55JHy7LPPyuDBg51HAQDA1qDgACJG53347//+b2ndurU88MAD0rVrVzMvBJrvzTffNJe8vfzyy+X77783M76/8sorcvDBBzt7AACArUXBAUSQDh7Xk2MdyPzJJ5/IueeeK6effrqZ8Rpb75tvvpHrr79efvrTn5p5Nn784x/LU089ZbpTAQCA5olVV1fHY7GY6E2vwGI2WtbXr19vflFtyObNm81Sr6jTkNTndrnr7mNKn0+3uzfyJZHPrlDzzZgxQ/7whz/Ip59+arZffPHFZqzBgQceaO6jYToQXG9ffPGFua+tGnoJYj22YXh/U3Mo2zr5yEc+8iny2ZEv9/mYadyCfHbk85frfD/88IOMGzfOzEjubr/kkkvkiiuukG7dupn72OLbb7+Vu+++W/7yl79IdXW12aZjNEaNGmXtPsXnz4t8duSzI58/8nmRzy7K+RouVQBEwjbbbGNmI//444/lyiuvNNsefPBBOfTQQ2XAgAHyt7/9zWwrdO+9956ZtE//4/rb3/7WFBs///nP5aWXXjJXoWKsBgAAmUfBAeSRvfbaS+644w7TvUrHJLRq1UoqKyvNDNlafGjXoc8++8zZu3BoMaGFxUEHHSR/+tOfzJiNkpISefHFF2X27NnSr18/Z08AAJBpFBxAHurQoYP88Y9/lNWrV5sC5Cc/+Ym8/fbbZmyCPqZXYnr44Ydrxy3kIx38rd3KdtttN3MJYb20rfZT1TEaeiyefPJJM78JAAAIFgUHkMe0hUO7WGmXoeeff17OP/98M4mdnozr4PI999xTTjzxRPOrv56ER5kWV0888YS5Ytfuu+9uiqqHHnrIzFnSv39/s64Fll556pBDDnH+CgAABI2CAygQWlg8+uij5gT88ccfN12KdOyHdivScQ3a5WqfffaRYcOGmfk9wl6AaNewadOmyVVXXSU9evQw4zI0u85J8tVXX0mvXr1MK8+//vUv+Z//+R+56KKLTLEFAACyi4IDKDAtW7Y0rQA6tkMvh6fLSy+9VPbdd18zp4e2EugM5lqA7LrrrqZ14Oqrr5ZHHnlEXn31Vfn3v//tPFN26OX4li9fbnLefPPNplDSrNo1bODAgabFYunSpaa71FlnnSX33HOPrFixQhYtWmTGsegM7QAAIHe4LK4F+ezI5y9f8v3zn/+UBQsWmNvixYvl/fffdx6tq6ioSPbbbz/TIqIn/jpYvV27dqaLlnZn2mWXXWSnnXaSHXfcUbbffnuT0b0Wt76OzuK9ceNGU/BoAaMtEtrdSbtF1dTUmNYLLX6qqqrkgw8+qHN9cZe+lrZi9O7dW/r27StHH3202Z7L46cy9brksyOfHfn8kc+LfHbks8vE68YS/6efVsGxZs0aadu2rXPPLpcHjHxe5LMjn53t+dauXStvvPGGLFu2TN555x159913TRGyYcMGZ4/0pU44tLW0lUKvMNW1a1c57LDDzIzgfi0XYTp+NuSzI58/8nmRz458duTzl618FBwW5LMjn79Cy6ctEHrpXW2F0HWdz0Jf4/PPP5cvv/xS1q1bZ1ovtBXju+++M3/jFhv6/DqWQrt26aB2bQnR7lDaatKmTRvzS8vee+8tHTt2NF2ntCVF/ybTxyXd/RSfPy/y2ZHPjnz+yOdFPrso56NLlQX57Mjnj3xe5LMjnx35/JHPi3x25LMjn79s5WPQOAAAAIDAUHAAAAAACAwFBwAAAIDAUHAAAAAACAwFBwAAAIDAUHAAAAAACAwFBwAAAIDAMPGfBfnsyOePfF7ksyOfHfn8kc+LfHbksyOfv2zlo4UDAAAAQGCYadyCfHbk80c+L/LZkc+OfP7I50U+O/LZkc9ftvLRwgEAAAAgICL/H8pjJrqTeD1zAAAAAElFTkSuQmCC;" vertex="1" parent="1">
          <mxGeometry x="16" y="1160" width="796" height="844" as="geometry" />
        </mxCell>
      </root>
    </mxGraphModel>
  </diagram>
</mxfile>
